<svg width="24" height="24" viewBox="0 0 24 24" fill="none" xmlns="http://www.w3.org/2000/svg">
<path d="M12 24C18.6274 24 24 18.6274 24 12C24 5.37258 18.6274 0 12 0C5.37258 0 0 5.37258 0 12C0 18.6274 5.37258 24 12 24Z" fill="#F2AA1C"/>
<path d="M8.70445 5.6768L11.0726 6.31173L11.6164 4.28337L12.9696 4.64619L12.4258 6.67455L13.4399 6.94647L13.9838 4.91811L15.3377 5.28113L14.7939 7.30948C18.5152 8.30724 17.4275 12.364 15.3515 11.9921C18.1033 12.5483 17.3285 18.1432 12.254 16.7826L11.7101 18.811L10.3569 18.4482L10.9008 16.4198L9.88658 16.1479L9.34275 18.1763L7.98882 17.8133L8.53265 15.7849L6.16454 15.15L6.86566 13.8875L7.54154 14.0687C7.72099 14.1168 7.91219 14.0916 8.0731 13.9988C8.23401 13.9059 8.35144 13.7529 8.39955 13.5735L9.8514 8.15849C9.89861 7.97934 9.87293 7.78878 9.77998 7.62852C9.68703 7.46826 9.53437 7.35135 9.35543 7.30337L8.34125 7.03145L8.70445 5.6768ZM12.0626 8.0292L11.3369 10.7356C11.3369 10.7356 14.334 11.7209 14.7423 10.1982C15.1505 8.67545 12.0626 8.0292 12.0626 8.0292ZM11.0648 11.7505L10.2491 14.7931C10.2491 14.7931 13.9704 15.7908 14.3783 14.2695C14.7861 12.7483 11.0648 11.7505 11.0648 11.7505Z" fill="white"/>
</svg>
