<svg width="24" height="24" viewBox="0 0 24 24" fill="none" xmlns="http://www.w3.org/2000/svg">
<path d="M12 0C14.3734 0 16.6934 0.703788 18.6668 2.02236C20.6402 3.34094 22.1783 5.21508 23.0865 7.4078C23.9948 9.60051 24.2324 12.0133 23.7694 14.3411C23.3064 16.6689 22.1635 18.807 20.4853 20.4853C18.807 22.1635 16.6689 23.3064 14.3411 23.7694C12.0133 24.2324 9.60051 23.9948 7.4078 23.0865C5.21508 22.1783 3.34094 20.6402 2.02236 18.6668C0.703788 16.6934 0 14.3734 0 12C0 8.8174 1.26428 5.76515 3.51472 3.51472C5.76515 1.26428 8.8174 0 12 0" fill="#53AE94"/>
<path d="M13.4813 10.4007V8.61577H17.5635V5.89551H6.44776V8.61577H10.5308V10.3993C7.21276 10.5493 4.71826 11.2085 4.71826 11.996C4.71826 12.7835 7.21426 13.4405 10.5308 13.5935V19.3115H13.4827V13.5905C16.7947 13.4405 19.2848 12.7812 19.2848 11.9945C19.2848 11.2077 16.7947 10.5515 13.4827 10.3985L13.4813 10.4007ZM13.4827 13.106C13.3995 13.1113 12.9712 13.1368 12.0187 13.1368C11.2567 13.1368 10.7212 13.115 10.5322 13.1053C7.60125 12.9755 5.41276 12.4648 5.41276 11.8543C5.41276 11.2438 7.60125 10.7338 10.5322 10.6033V12.5968C10.7242 12.6103 11.2732 12.6425 12.0322 12.6425C12.9427 12.6425 13.4003 12.6043 13.4843 12.5968V10.6033C16.4093 10.7338 18.5933 11.2445 18.5933 11.8535C18.5933 12.4625 16.4093 12.9733 13.4843 13.1038" fill="white"/>
</svg>
