<svg width="24" height="24" viewBox="0 0 24 24" fill="none" xmlns="http://www.w3.org/2000/svg">
<path d="M12 24C18.6274 24 24 18.6274 24 12C24 5.37258 18.6274 0 12 0C5.37258 0 0 5.37258 0 12C0 18.6274 5.37258 24 12 24Z" fill="#13171C"/>
<path d="M6.74477 5.83398L10.1378 9.18573C10.3817 9.43132 10.6719 9.62622 10.9915 9.75922C11.3111 9.89222 11.6538 9.96069 12 9.96069C12.3462 9.96069 12.6889 9.89222 13.0085 9.75922C13.3282 9.62622 13.6183 9.43132 13.8623 9.18573L17.2553 5.83398H19.407L14.9378 10.259C14.1565 11.0342 13.1006 11.4692 12 11.4692C10.8994 11.4692 9.84349 11.0342 9.06227 10.259L4.59302 5.83398H6.74477Z" fill="white"/>
<path d="M17.2965 18.1648L13.8623 14.7718C13.6183 14.5262 13.3281 14.3313 13.0085 14.1983C12.6889 14.0653 12.3462 13.9969 12 13.9969C11.6538 13.9969 11.3111 14.0653 10.9915 14.1983C10.6719 14.3313 10.3817 14.5262 10.1378 14.7718L6.70351 18.1648H4.55176L9.06226 13.6956C9.84348 12.9204 10.8994 12.4854 12 12.4854C13.1006 12.4854 14.1565 12.9204 14.9378 13.6956L19.4483 18.1648H17.2965Z" fill="white"/>
</svg>
