<svg width="18" height="18" viewBox="0 0 18 18" fill="none" xmlns="http://www.w3.org/2000/svg">
<path d="M4.66912 3.60799C4.52767 3.47138 4.33822 3.39578 4.14157 3.39749C3.94492 3.3992 3.75681 3.47808 3.61776 3.61713C3.4787 3.75619 3.39983 3.9443 3.39812 4.14094C3.39641 4.33759 3.472 4.52704 3.60862 4.66849L7.93987 8.99975L3.60787 13.331C3.53624 13.4002 3.4791 13.4829 3.4398 13.5744C3.40049 13.6659 3.3798 13.7644 3.37893 13.8639C3.37807 13.9635 3.39705 14.0623 3.43476 14.1545C3.47247 14.2466 3.52816 14.3304 3.59858 14.4008C3.669 14.4712 3.75273 14.5269 3.84491 14.5646C3.93708 14.6023 4.03584 14.6213 4.13542 14.6204C4.23501 14.6196 4.33342 14.5989 4.42493 14.5596C4.51643 14.5203 4.59919 14.4631 4.66837 14.3915L9.00037 10.0602L13.3316 14.3915C13.4731 14.5281 13.6625 14.6037 13.8592 14.602C14.0558 14.6003 14.2439 14.5214 14.383 14.3824C14.522 14.2433 14.6009 14.0552 14.6026 13.8585C14.6043 13.6619 14.5287 13.4724 14.3921 13.331L10.0609 8.99975L14.3921 4.66849C14.5287 4.52704 14.6043 4.33759 14.6026 4.14094C14.6009 3.9443 14.522 3.75619 14.383 3.61713C14.2439 3.47808 14.0558 3.3992 13.8592 3.39749C13.6625 3.39578 13.4731 3.47138 13.3316 3.60799L9.00037 7.93925L4.66912 3.60724V3.60799Z" fill="#646A86"/>
</svg>
