<svg width="29" height="28" viewBox="0 0 29 28" fill="none" xmlns="http://www.w3.org/2000/svg">
<path d="M14.5 4C8.99 4 4.5 8.49 4.5 14C4.5 19.51 8.99 24 14.5 24C20.01 24 24.5 19.51 24.5 14C24.5 8.49 20.01 4 14.5 4ZM13.75 10C13.75 9.59 14.09 9.25 14.5 9.25C14.91 9.25 15.25 9.59 15.25 10V15C15.25 15.41 14.91 15.75 14.5 15.75C14.09 15.75 13.75 15.41 13.75 15V10ZM15.42 18.38C15.37 18.51 15.3 18.61 15.21 18.71C15.11 18.8 15 18.87 14.88 18.92C14.76 18.97 14.63 19 14.5 19C14.37 19 14.24 18.97 14.12 18.92C14 18.87 13.89 18.8 13.79 18.71C13.7 18.61 13.63 18.51 13.58 18.38C13.53 18.26 13.5 18.13 13.5 18C13.5 17.87 13.53 17.74 13.58 17.62C13.63 17.5 13.7 17.39 13.79 17.29C13.89 17.2 14 17.13 14.12 17.08C14.36 16.98 14.64 16.98 14.88 17.08C15 17.13 15.11 17.2 15.21 17.29C15.3 17.39 15.37 17.5 15.42 17.62C15.47 17.74 15.5 17.87 15.5 18C15.5 18.13 15.47 18.26 15.42 18.38Z" fill="#2F80ED"/>
</svg>
