<svg id="eDWeFa8n7vs1" xmlns="http://www.w3.org/2000/svg" xmlns:xlink="http://www.w3.org/1999/xlink" viewBox="0 0 40 40" shape-rendering="geometricPrecision" text-rendering="geometricPrecision">
<style><![CDATA[
#eDWeFa8n7vs3_tr {animation: eDWeFa8n7vs3_tr__tr 3000ms linear infinite normal forwards}@keyframes eDWeFa8n7vs3_tr__tr { 0% {transform: translate(20px,20.125px) rotate(720deg)} 66.666667% {transform: translate(20px,20.125px) rotate(810deg)} 100% {transform: translate(20px,20.125px) rotate(900deg)}}
]]></style>
<defs><radialGradient id="eDWeFa8n7vs5-fill" cx="0" cy="0" r="1" spreadMethod="pad" gradientUnits="userSpaceOnUse" gradientTransform="matrix(10.75 -25.5 25.5 10.75 28 28)"><stop id="eDWeFa8n7vs5-fill-0" offset="0%" stop-color="#17ce89"/><stop id="eDWeFa8n7vs5-fill-1" offset="100%" stop-color="rgba(23,206,137,0)"/></radialGradient></defs><path d="M31.3071,20.0237c-.0597,3.3411-1.2331,6.2088-3.6651,8.5226-1.5883,1.5114-3.4783,2.4519-5.6376,2.8342-.9312.1651-1.8702.1929-2.8156.1132-4.1063-.3467-7.8161-3.1112-9.40149-7.234-.60446-1.5712-.85733-3.2023-.76783-4.8817.21167-3.9662,2.32052-7.3244,5.34212-9.2253c1.3055-.82155,2.7197-1.34126,4.2476-1.56552c3.675-.53894,7.382.86286,9.8581,3.73192c1.4227,1.6482,2.3042,3.5547,2.675,5.6984.1136.6614.1761,1.3299.1648,2.0062Zm-8.2316,3.3397c.0618-.0107.0845-.0207.1058-.0171.0668.0107.1335.0256.1996.0413c1.0385.2364,2.0861.3125,3.1445.1652.4404-.0613.8665-.1716,1.2785-.3403.1563-.0641.228-.1624.2252-.3368-.0078-.4891.0035-.9782-.0057-1.4666-.0199-1.117-.7963-1.9329-1.905-2.0204-.5896-.047-1.1777.0035-1.7665.0042-.0675,0-.1357.0143-.2017.0292-.5967.1331-1.052.4613-1.3645.9896-.0426.0719-.0519.1751-.1407.1986-.093-.0854-.179-.1594-.2592-.2378-.3012-.294-.6606-.4812-1.0697-.5638-.2103-.0427-.4269-.0691-.6414-.0733-.4645-.0093-.9291-.0015-1.3943.0014-.694.005-1.2842.2485-1.7566.7653-.0426.047-.0966.084-.1577.1353-.0596-.1239-.1051-.2271-.1584-.3261-.2415-.4506-.6016-.7689-1.0888-.9234-.2145-.0683-.4418-.1189-.6656-.126-.532-.0171-1.0676-.0306-1.5981.0036-1.1394.0726-1.8433.9988-1.8624,1.7983-.0135.5682-.0313,1.1363-.0405,1.7044-.0036.2328.0206.2648.255.3332.2614.0762.5249.1452.7912.2008c1.2729.2641,2.5436.3011,3.8079-.057.0412-.0114.086-.01.1556-.0164c0,.1623-.0029.3083.0007.4542.0057.2136.0327.2485.2351.319.0426.0149.0874.0235.1314.0363c1.1656.3481,2.356.4777,3.5678.3937.613-.0427,1.2153-.1545,1.7899-.3837.0846-.0335.1698-.0655.2501-.1082.0738-.0392.1186-.1047.1221-.1923.005-.1246.0107-.2477.0164-.3844ZM20.0049,19.462c.9702.037,1.8219-.7775,1.8233-1.8034.0014-.9717-.7877-1.7819-1.77-1.7898-.9973-.0078-1.8234.754-1.8205,1.7699.0035,1.2409,1.0015,1.8454,1.7672,1.8233Zm-5.2207-.3638c.9014-.02,1.6138-.6849,1.6266-1.6275.0128-.912-.7202-1.6076-1.5925-1.6189-.9298-.0121-1.6429.7219-1.6436,1.6011c0,.828.6023,1.609,1.6095,1.6453Zm10.5756-3.2657c-.7849-.0213-1.6131.6137-1.6216,1.5841-.0085.9526.7465,1.6545,1.628,1.6517.8026-.0029,1.6081-.6422,1.606-1.641-.0029-1.001-.868-1.6197-1.6124-1.5948Z" fill="#17ce89"/><g id="eDWeFa8n7vs3_tr" transform="translate(20,20.125) rotate(720)"><g transform="translate(-20,-20.125)" mask="url(#eDWeFa8n7vs6)"><g><rect width="56" height="56" rx="0" ry="0" transform="matrix(0-1-1 0 48.125 48.125)" fill="url(#eDWeFa8n7vs5-fill)"/></g><mask id="eDWeFa8n7vs6" mask-type="alpha" x="-150%" y="-150%" height="400%" width="400%"><path d="M19.2325,40c-.2592-.0968-.5348-.0954-.8033-.1225-2.4825-.2491-4.8208-.9696-7.0135-2.1571-2.42207-1.3121-4.45849-3.0806-6.14543-5.2569-.06251-.0805-.12502-.1616-.19036-.24-.0135-.0163-.03836-.0235-.07387-.0448-.2273.1288-.46169.2663-.70035.3944-.23653.1267-.45175.2962-.73658.383.14135-1.9913.28625-3.9583.43186-5.9461.08737.02.13212.0235.17047.0406.66484.2926,4.96282,2.4562,5.18017,2.6093-.2074.1651-.44393.2712-.66412.4036-.22303.1339-.45033.262-.69396.403.05754.0861.10086.163.15556.2299c2.36101,2.8898,5.34001,4.7885,8.99091,5.5944c1.2693.2798,2.557.3752,3.8583.3218c5.1773-.2136,9.6749-3.03,12.3754-7.0588c1.3745-2.0511,2.2495-4.2987,2.6395-6.7385.1967-1.2302.2472-2.4668.1776-3.707-.0703-1.2523-.2849-2.4832-.6379-3.6878-.0319-.1083-.0604-.2172-.0959-.3432.3133-.2157.65-.3766.9717-.5617.3246-.1865.6514-.3702.9802-.5496.3268-.178.6414-.3809,1.0008-.5382.0384.0832.0767.1509.1009.2228.3843,1.1562.6648,2.3373.8403,3.544.164,1.1284.2251,2.2618.2031,3.4009-.0582,2.9901-.7259,5.8372-2.0584,8.5126-1.9697,3.9534-4.9124,6.9535-8.8652,8.9369-1.6855.8465-3.4655,1.4097-5.3307,1.6916-.5157.0783-1.0357.1317-1.5535.1993-.1115.0143-.2209.042-.3317.0641-.728,0-1.4547,0-2.182,0Z"/><path d="M20.3229,0.00071c.1569.019223.3139.049124.4709.055531c2.9108.116046,5.6362.897038,8.1854,2.298839c2.1764,1.19676,4.0387,2.77441,5.6192,4.69022.0717.08686.1456.173.2294.27267.0746-.03559.147-.06265.2109-.10251.2984-.18653.5945-.37733.8929-.56528.0852-.05411.174-.10252.2557-.15022.1122.0534.0696.14381.0682.21501-.0242,1.02305-.0526,2.04681-.0796,3.06986-.0199.75037-.0383,1.50077-.0582,2.25117-.0036.1224-.0114.2456-.0171.3616-.1349.0648-.2202-.0149-.3068-.0527-.9468-.4122-1.8915-.8301-2.8369-1.2458-.6961-.3062-1.3915-.613-2.0876-.9199-.0724-.032-.1442-.0655-.2429-.1103.054-.0563.0888-.10965.1385-.14168.2955-.19151.5938-.37804.8914-.56742.0952-.06051.1882-.12387.2713-.17869.0327-.09967-.0333-.14097-.0752-.18938-2.3398-2.72955-5.2463-4.52078-8.7644-5.28825-1.4859-.32393-2.9924-.41078-4.5061-.27196-2.9804.27267-5.6717,1.31495-8.0426,3.14106C7.43601,8.96254,5.44434,12.0879,4.50818,15.8897c-.34166,1.3868-.49153,2.7986-.46738,4.2267.02486,1.4851.2344,2.9446.64282,4.3741.04048.141.07671.2827.11933.4414-.31963.2136-.6556.3774-.97808.5625-.31537.1801-.63358.3552-.95108.5325-.32674.1823-.65347.3645-.96671.5396-.1314-.0377-.12927-.1438-.15697-.2249-.30685-.9056-.54409-1.8297-.71456-2.7709-.14419-.7952-.250024-1.5947-.291221-2.4027-.007813-.1474-.012785-.2969-.119329-.4165c0-.5917,0-1.1833,0-1.7749.110806-.1445.112937-.3182.122881-.4877.070319-1.2302.255709-2.4433.565389-3.6344C2.59251,9.94074,5.3101,6.02653,9.51504,3.18377C12.3946,1.23734,15.5902,0.200765,19.0678,0.054818c.1463-.006407.2912-.035596.4368-.054818.2735.000712.5455.00071.8183.00071Z" transform="translate(.000001 0)" fill="#05f29a"/></mask></g></g></svg>
