<svg width="58" height="58" viewBox="0 0 58 58" fill="none" xmlns="http://www.w3.org/2000/svg">
<path fill-rule="evenodd" clip-rule="evenodd" d="M38.9794 19.9586C38.9794 25.5979 34.4837 30.1197 28.8771 30.1197C23.2704 30.1197 18.7748 25.5979 18.7748 19.9586C18.7748 14.3172 23.2704 9.7998 28.8771 9.7998C34.4837 9.7998 38.9794 14.3172 38.9794 19.9586ZM28.8778 48.1996C20.6429 48.1996 13.6115 46.8941 13.6115 41.672C13.6115 36.4478 20.5978 35.0947 28.8778 35.0947C37.1126 35.0947 44.144 36.4002 44.144 41.6245C44.144 46.8466 37.1577 48.1996 28.8778 48.1996ZM43.2969 20.1423C43.2969 23.0171 42.4394 25.6951 40.9352 27.9214C40.7804 28.1505 40.918 28.4596 41.1909 28.5072C41.567 28.572 41.9559 28.6087 42.3513 28.6196C46.2947 28.7233 49.834 26.1706 50.8118 22.3276C52.2602 16.6191 48.0074 11.4943 42.592 11.4943C42.0032 11.4943 41.4402 11.557 40.8922 11.6694C40.817 11.6867 40.7374 11.7213 40.6945 11.7883C40.6429 11.8704 40.6816 11.9807 40.7332 12.052C42.3599 14.3453 43.2969 17.1422 43.2969 20.1423ZM49.8286 32.6298C52.4783 33.1507 54.2211 34.2141 54.9432 35.7595C55.5535 37.0283 55.5535 38.5003 54.9432 39.7669C53.8386 42.1639 50.2778 42.9334 48.8938 43.1323C48.608 43.1755 48.3781 42.9269 48.4082 42.6395C49.1152 35.9973 43.4913 32.8481 42.0365 32.124C41.9742 32.0916 41.9613 32.0418 41.9677 32.0116C41.972 31.99 41.9978 31.9554 42.0451 31.9489C45.1933 31.8905 48.5779 32.3228 49.8286 32.6298ZM15.6487 28.6184C16.0441 28.6076 16.4309 28.573 16.8091 28.506C17.082 28.4584 17.2196 28.1493 17.0648 27.9202C15.5606 25.6939 14.7031 23.0159 14.7031 20.1412C14.7031 17.141 15.6401 14.3441 17.2668 12.0508C17.3184 11.9795 17.3549 11.8693 17.3055 11.7871C17.2625 11.7223 17.1809 11.6855 17.1078 11.6682C16.5577 11.5558 15.9947 11.4932 15.4058 11.4932C9.99044 11.4932 5.73764 16.618 7.18819 22.3264C8.16597 26.1695 11.7053 28.7221 15.6487 28.6184ZM16.0332 32.0106C16.0397 32.043 16.0268 32.0906 15.9666 32.1251C14.5096 32.8492 8.88578 35.9985 9.59279 42.6385C9.62287 42.9281 9.39508 43.1745 9.10927 43.1334C7.72533 42.9346 4.1645 42.1651 3.05993 39.7681C2.44747 38.4993 2.44747 37.0295 3.05993 35.7607C3.78198 34.2153 5.52264 33.1518 8.17232 32.6288C9.42517 32.324 12.8076 31.8917 15.958 31.9501C16.0053 31.9566 16.0289 31.9911 16.0332 32.0106Z" fill="#7C8DB5"/>
</svg>
