<svg width="64" height="64" viewBox="0 0 64 64" fill="none" xmlns="http://www.w3.org/2000/svg">
<path d="M55.1039 9.27466L21.3333 21.3333V40L23.3279 40.712L20.3226 46.7227C19.9803 47.406 19.7889 48.1549 19.7615 48.9187C19.734 49.6825 19.8711 50.4432 20.1635 51.1494C20.4559 51.8555 20.8967 52.4905 21.456 53.0113C22.0153 53.5322 22.6801 53.9266 23.4053 54.168L34.2959 57.7973C35.5142 58.1945 36.8343 58.1433 38.0181 57.6528C39.2019 57.1624 40.1715 56.265 40.7519 55.1227L44.2266 48.1733L55.1039 52.0587C55.5061 52.2022 55.937 52.2469 56.3601 52.1893C56.7832 52.1316 57.1863 51.9731 57.5355 51.7272C57.8846 51.4813 58.1696 51.1551 58.3665 50.7761C58.5633 50.3971 58.6662 49.9764 58.6666 49.5493V11.784C58.6662 11.3569 58.5633 10.9362 58.3665 10.5572C58.1696 10.1782 57.8846 9.85205 57.5355 9.60613C57.1863 9.36022 56.7832 9.20175 56.3601 9.14407C55.937 9.08638 55.5061 9.13117 55.1039 9.27466ZM35.9813 52.7387L25.0933 49.1093L28.3866 42.52L39.1652 46.3707L35.9813 52.7387ZM10.6666 40H15.9999V21.3333H10.6666C7.72525 21.3333 5.33325 23.7253 5.33325 26.6667V34.6667C5.33325 37.608 7.72525 40 10.6666 40Z" fill="#B8C4CE"/>
</svg>
