<svg width="20" height="20" viewBox="0 0 20 20" fill="none" xmlns="http://www.w3.org/2000/svg">
<path d="M6.18 2.20009H6.32018L6.368 2.06832C6.56419 1.52778 6.92205 1.06075 7.39295 0.730705C7.86385 0.400661 8.42496 0.22361 9 0.22361C9.57504 0.22361 10.1361 0.400661 10.607 0.730705C11.0779 1.06075 11.4358 1.52778 11.632 2.06832L11.6798 2.20009H11.82H19C19.2122 2.20009 19.4157 2.28437 19.5657 2.4344C19.7157 2.58443 19.8 2.78791 19.8 3.00009C19.8 3.21226 19.7157 3.41574 19.5657 3.56577C19.4157 3.7158 19.2122 3.80009 19 3.80009H11.82H11.6798L11.632 3.93185C11.4358 4.47239 11.0779 4.93942 10.607 5.26947C10.1361 5.59951 9.57504 5.77656 9 5.77656C8.42496 5.77656 7.86385 5.59951 7.39295 5.26947C6.92205 4.93942 6.56419 4.47239 6.368 3.93185L6.32018 3.80009H6.18H1C0.787826 3.80009 0.584343 3.7158 0.434314 3.56577C0.284286 3.41574 0.2 3.21226 0.2 3.00009C0.2 2.78791 0.284286 2.58443 0.434314 2.4344C0.584343 2.28437 0.787826 2.20009 1 2.20009H6.18ZM12.18 9.20009H12.3202L12.368 9.06832C12.5642 8.52778 12.9221 8.06075 13.393 7.73071C13.8639 7.40066 14.425 7.22361 15 7.22361C15.575 7.22361 16.1361 7.40066 16.607 7.73071C17.0779 8.06075 17.4358 8.52778 17.632 9.06832L17.6798 9.20009H17.82H19C19.2122 9.20009 19.4157 9.28437 19.5657 9.4344C19.7157 9.58443 19.8 9.78791 19.8 10.0001C19.8 10.2123 19.7157 10.4157 19.5657 10.5658C19.4157 10.7158 19.2122 10.8001 19 10.8001H17.82H17.6798L17.632 10.9319C17.4358 11.4724 17.0779 11.9394 16.607 12.2695C16.1361 12.5995 15.575 12.7766 15 12.7766C14.425 12.7766 13.8639 12.5995 13.393 12.2695C12.9221 11.9394 12.5642 11.4724 12.368 10.9319L12.3202 10.8001H12.18H1C0.787827 10.8001 0.584344 10.7158 0.434314 10.5658C0.284285 10.4157 0.2 10.2123 0.2 10.0001C0.2 9.78791 0.284285 9.58443 0.434314 9.4344C0.584344 9.28437 0.787827 9.20009 1 9.20009H12.18ZM4.18 16.2001H4.32018L4.368 16.0683C4.56419 15.5278 4.92205 15.0608 5.39295 14.7307C5.86386 14.4007 6.42496 14.2236 7 14.2236C7.57504 14.2236 8.13615 14.4007 8.60705 14.7307C9.07795 15.0608 9.43581 15.5278 9.632 16.0683L9.67982 16.2001H9.82H19C19.2122 16.2001 19.4157 16.2844 19.5657 16.4344C19.7157 16.5844 19.8 16.7879 19.8 17.0001C19.8 17.2123 19.7157 17.4157 19.5657 17.5658C19.4157 17.7158 19.2122 17.8001 19 17.8001H9.82H9.67982L9.632 17.9319C9.43581 18.4724 9.07795 18.9394 8.60705 19.2695C8.13615 19.5995 7.57504 19.7766 7 19.7766C6.42496 19.7766 5.86386 19.5995 5.39295 19.2695C4.92205 18.9394 4.56419 18.4724 4.368 17.9319L4.32018 17.8001H4.18H1C0.787827 17.8001 0.584344 17.7158 0.434315 17.5658C0.284285 17.4157 0.2 17.2123 0.2 17.0001C0.2 16.7879 0.284285 16.5844 0.434315 16.4344C0.584344 16.2844 0.787827 16.2001 1 16.2001H4.18ZM9.99776 3.66677C10.1296 3.46943 10.2 3.23742 10.2 3.00009C10.2 2.68183 10.0736 2.3766 9.84853 2.15156C9.62348 1.92651 9.31826 1.80009 9 1.80009C8.76266 1.80009 8.53065 1.87046 8.33331 2.00232C8.13598 2.13418 7.98217 2.3216 7.89134 2.54087C7.80052 2.76014 7.77676 3.00142 7.82306 3.2342C7.86936 3.46697 7.98365 3.68079 8.15147 3.84862C8.3193 4.01644 8.53311 4.13073 8.76589 4.17703C8.99867 4.22333 9.23995 4.19957 9.45922 4.10874C9.67849 4.01792 9.86591 3.86411 9.99776 3.66677ZM15.9978 10.6668C16.1296 10.4694 16.2 10.2374 16.2 10.0001C16.2 9.68183 16.0736 9.3766 15.8485 9.15156C15.6235 8.92651 15.3183 8.80009 15 8.80009C14.7627 8.80009 14.5307 8.87046 14.3333 9.00232C14.136 9.13418 13.9822 9.32159 13.8913 9.54087C13.8005 9.76014 13.7768 10.0014 13.8231 10.2342C13.8694 10.467 13.9836 10.6808 14.1515 10.8486C14.3193 11.0164 14.5331 11.1307 14.7659 11.177C14.9987 11.2233 15.2399 11.1996 15.4592 11.1087C15.6785 11.0179 15.8659 10.8641 15.9978 10.6668ZM7.99776 17.6668C8.12962 17.4694 8.2 17.2374 8.2 17.0001C8.2 16.6818 8.07357 16.3766 7.84853 16.1516C7.62348 15.9265 7.31826 15.8001 7 15.8001C6.76266 15.8001 6.53065 15.8705 6.33332 16.0023C6.13598 16.1342 5.98217 16.3216 5.89134 16.5409C5.80052 16.7601 5.77676 17.0014 5.82306 17.2342C5.86936 17.467 5.98365 17.6808 6.15147 17.8486C6.31929 18.0164 6.53311 18.1307 6.76589 18.177C6.99867 18.2233 7.23995 18.1996 7.45922 18.1087C7.67849 18.0179 7.86591 17.8641 7.99776 17.6668Z" fill="#333333" stroke="white" stroke-width="0.4"/>
</svg>
