<svg id="Capa_1" fill="currentColor" enable-background="new 0 0 511.985 511.985" height="512" viewBox="0 0 511.985 511.985" width="512" xmlns="http://www.w3.org/2000/svg"><g><path d="m436.985 15.992c-8.293 0-15 6.707-15 15v23.381c-54.697 52.564-127.196 81.619-203.282 81.619h-7.718v180h7.718c76.086 0 148.585 29.053 203.282 81.617v23.383c0 8.291 6.707 15 15 15 8.291 0 15-6.709 15-15v-390c0-8.292-6.709-15-15-15z"/><path d="m180.985 480.992v-135h-90v135c0 8.291 6.707 15 15 15h60c8.291 0 15-6.708 15-15z"/><path d="m481.985 174.335v103.314c17.847-10.406 30-29.544 30-51.656 0-22.114-12.153-41.251-30-51.658z"/><path d="m0 225.993c.104 50.47 40.983 90 89.985 90h91v-180h-86.723c-50.081-.001-94.367 38.845-94.262 90z"/></g></svg>