<svg id="Capa_1" enable-background="new 0 0 512 512" height="512" viewBox="0 0 512 512" width="512" xmlns="http://www.w3.org/2000/svg"><g><path d="m153.289 0h-86.561l-45 90h116.566z"/><path d="m238.301 0h-54.602l-14.995 90h84.592z"/><path d="m286 189.272 45 22.5 75-37.5v-54.272h-120z"/><path d="m400.272 90-45-90h-86.561l14.995 90z"/><path d="m256 189.272v-69.272h-90v69.272l45 22.5z"/><path d="m136 189.272v-69.272h-120v54.272l75 37.5z"/><path d="m376 392c-33.091 0-60 26.909-60 60s26.909 60 60 60 60-26.909 60-60c0-33.847-27.589-60-60-60zm0 90c-16.538 0-30-13.462-30-30s13.462-30 30-30c16.261 0 30 13.206 30 30 0 16.538-13.462 30-30 30z"/><g><path d="m106 240h120v30h-120z"/><path d="m406 300h-30v-77.183l-30 15v62.183h-270v-62.183l-30-15v77.183h-30v167h60v45h30v-45h181.516c-.831-4.904-1.516-9.864-1.516-15 0-49.629 40.371-90 90-90 10.435 0 20.248 1.783 30 5.319v-37.319h90v-30z"/></g></g></svg>