<svg width="24" height="17" viewBox="0 0 24 17" fill="none" xmlns="http://www.w3.org/2000/svg">
<path d="M24 10.903C24 11.505 22.8 11.9064 21.4 12.107C20.5 10.4014 18.7 9.09701 16.6 8.194C16.8 7.89299 17 7.69232 17.2 7.39132H18C21.1 7.29099 24 9.19734 24 10.903ZM6.8 7.29099H6C2.9 7.29099 0 9.19734 0 10.903C0 11.505 1.2 11.9064 2.6 12.107C3.5 10.4014 5.3 9.09701 7.4 8.194L6.8 7.29099ZM12 8.29433C14.2 8.29433 16 6.48831 16 4.28095C16 2.0736 14.2 0.267578 12 0.267578C9.8 0.267578 8 2.0736 8 4.28095C8 6.48831 9.8 8.29433 12 8.29433ZM12 9.29767C7.9 9.29767 4 11.9064 4 14.3144C4 16.3211 12 16.3211 12 16.3211C12 16.3211 20 16.3211 20 14.3144C20 11.9064 16.1 9.29767 12 9.29767ZM17.7 6.28764H18C19.7 6.28764 21 4.9833 21 3.27761C21 1.57193 19.7 0.267578 18 0.267578C17.5 0.267578 17.1 0.367913 16.7 0.568582C17.5 1.57193 18 2.87627 18 4.28095C18 4.98329 17.9 5.68564 17.7 6.28764ZM6 6.28764H6.3C6.1 5.68564 6 4.98329 6 4.28095C6 2.87627 6.5 1.57193 7.3 0.568582C6.9 0.367913 6.5 0.267578 6 0.267578C4.3 0.267578 3 1.57193 3 3.27761C3 4.9833 4.3 6.28764 6 6.28764Z" fill="#7C8DB5"/>
</svg>
