<svg width="27" height="24" viewBox="0 0 27 24" fill="none" xmlns="http://www.w3.org/2000/svg">
<path fill-rule="evenodd" clip-rule="evenodd" d="M13.2631 19.5785C10.436 19.5785 8.04638 17.7195 7.24142 15.1577H8.21049C8.55945 15.1577 8.84194 14.8753 8.84194 14.526C8.84194 14.177 8.55913 13.8945 8.21049 13.8945H5.68436C5.33539 13.8945 5.05258 14.177 5.05258 14.526V17.0524C5.05258 17.4014 5.33539 17.6839 5.68436 17.6839C6.033 17.6839 6.31581 17.4014 6.31581 17.0524V16.2633C7.4772 18.9549 10.1451 20.8421 13.2631 20.8421C17.0339 20.8421 20.1536 18.0844 20.7357 14.4776L19.4667 14.4316C18.9179 17.3608 16.3509 19.5785 13.2631 19.5785ZM22.7368 3.1579H20.2103C20.2103 1.41371 18.7969 0 17.0527 0H9.47371C7.72984 0 6.31581 1.41371 6.31581 3.1579H3.78935C1.69652 3.1579 0 4.85475 0 6.94726V20.2103C0 22.3032 1.69652 24 3.78935 24H22.7365C24.8296 24 26.5258 22.3035 26.5258 20.2103V6.94726C26.5261 4.85475 24.8299 3.1579 22.7368 3.1579ZM25.2629 20.21C25.2629 21.6052 24.132 22.7365 22.7368 22.7365H3.78968C2.39445 22.7365 1.26323 21.6052 1.26323 20.21V6.94726C1.26323 5.55203 2.39445 4.42113 3.78968 4.42113H7.57903V3.1579H7.66174C7.9426 2.06884 8.92853 1.26323 10.1052 1.26323H16.421C17.5976 1.26323 18.5835 2.06884 18.8644 3.1579H18.9471V4.42113H22.7368C24.132 4.42113 25.2629 5.55203 25.2629 6.94726V20.21ZM20.8418 8.21048C20.4928 8.21048 20.2103 8.49297 20.2103 8.84194V10.2605C19.0483 7.57028 16.3808 5.68436 13.2631 5.68436C9.71371 5.68436 6.74261 8.12811 5.91884 11.4222L7.20996 11.468C7.98379 8.85523 10.399 6.94758 13.2631 6.94758C15.8511 6.94758 18.0695 8.50821 19.0444 10.7373H18.3156C17.9667 10.7373 17.6842 11.0197 17.6842 11.3687C17.6842 11.7177 17.9667 12.0002 18.3156 12.0002H20.8418C21.1911 12.0002 21.4732 11.7177 21.4732 11.3687V8.84226C21.4732 8.49297 21.1911 8.21048 20.8418 8.21048Z" fill="white"/>
</svg>
