<svg width="109" height="32" viewBox="0 0 109 32" fill="none" xmlns="http://www.w3.org/2000/svg">
<rect width="109" height="32" rx="16" fill="#FAFAFA"/>
<path fill-rule="evenodd" clip-rule="evenodd" d="M31.007 22.0862C32.4458 23.412 34.3781 24.2162 36.4798 24.2162C40.9936 24.2162 44.6469 20.5347 44.6469 16.0067C44.6469 11.4649 40.9936 7.7832 36.4798 7.7832C34.3781 7.7832 32.4458 8.5872 31.007 9.91315C29.3566 11.4224 28.3127 13.5947 28.3127 16.0067C28.3129 18.4187 29.3566 20.5911 31.007 22.0862Z" fill="#7A809B"/>
<path fill-rule="evenodd" clip-rule="evenodd" d="M43.5603 20.5781C43.5603 20.4369 43.6732 20.3242 43.8141 20.3242C43.9692 20.3242 44.0819 20.4371 44.0819 20.5781C44.0819 20.7335 43.969 20.8462 43.8141 20.8462C43.6732 20.8462 43.5603 20.7335 43.5603 20.5781ZM43.8141 20.7899C43.927 20.7899 44.0255 20.691 44.0255 20.5782C44.0255 20.4655 43.9269 20.3808 43.8141 20.3808C43.7152 20.3808 43.6167 20.4655 43.6167 20.5782C43.6167 20.691 43.7154 20.7899 43.8141 20.7899ZM43.7859 20.7052H43.7295V20.4653H43.8281C43.8424 20.4653 43.8706 20.4653 43.8845 20.4796C43.9128 20.4936 43.9128 20.5078 43.9128 20.5361C43.9128 20.5643 43.8988 20.5925 43.8706 20.5925L43.927 20.7054H43.8563L43.8281 20.6065H43.7859V20.7052V20.5641H43.8424C43.8563 20.5641 43.8563 20.5498 43.8563 20.5359C43.8563 20.5216 43.8563 20.5216 43.8424 20.5077H43.7859V20.7052Z" fill="#7A809B"/>
<path fill-rule="evenodd" clip-rule="evenodd" d="M33.6462 15.1323C33.618 14.8361 33.5615 14.554 33.5051 14.2577H28.5117C28.5682 13.9615 28.6528 13.6795 28.7373 13.3973H33.2653C33.1671 13.1003 33.0541 12.8084 32.9268 12.5227H29.0901C29.2312 12.2239 29.3866 11.9321 29.5556 11.6482H32.4474C32.2613 11.3469 32.054 11.0594 31.8268 10.7877H30.1763C30.4316 10.4759 30.7098 10.1836 31.0086 9.91315C29.5558 8.60132 27.6373 7.7832 25.5215 7.7832C21.0219 7.7832 17.3545 11.4649 17.3545 16.0067C17.3545 20.5347 21.0219 24.2162 25.5215 24.2162C27.6373 24.2162 29.5556 23.412 31.0086 22.0862C31.3027 21.8205 31.5763 21.5328 31.8268 21.2256H30.1763C29.9506 20.9436 29.7532 20.6615 29.5556 20.351H32.4474C32.6292 20.0721 32.7896 19.7798 32.927 19.4765H29.0901C28.9631 19.1944 28.8363 18.9124 28.7373 18.6159H33.2653C33.364 18.3338 33.4347 18.0378 33.5049 17.7413C33.5613 17.4593 33.6178 17.1633 33.646 16.8668C33.6746 16.5808 33.6888 16.2936 33.6885 16.0062C33.6885 15.7105 33.6744 15.4143 33.6462 15.1323Z" fill="#A3A7B6"/>
<path fill-rule="evenodd" clip-rule="evenodd" d="M43.5603 17.9113C43.5603 17.7563 43.6732 17.6436 43.8141 17.6436C43.9692 17.6436 44.0819 17.7564 44.0819 17.9113C44.0819 18.0524 43.969 18.1793 43.8141 18.1793C43.6732 18.1793 43.5603 18.0522 43.5603 17.9113ZM43.8141 18.1086C43.927 18.1086 44.0255 18.024 44.0255 17.9113C44.0255 17.7986 43.9269 17.7139 43.8141 17.7139C43.7152 17.7139 43.6167 17.7986 43.6167 17.9113C43.6167 18.024 43.7154 18.1086 43.8141 18.1086ZM43.7859 18.024H43.7295V17.7984H43.8845C43.9128 17.8127 43.9128 17.8409 43.9128 17.8691C43.9128 17.8831 43.8988 17.9113 43.8706 17.9256L43.927 18.0242H43.8563L43.8281 17.9395H43.7859V18.024V17.8972H43.8141C43.8281 17.8972 43.8424 17.8972 43.8424 17.8829C43.8563 17.8829 43.8563 17.869 43.8563 17.8547C43.8563 17.8547 43.8563 17.8407 43.8424 17.8407C43.8424 17.8265 43.8281 17.8407 43.8141 17.8407H43.7859V18.024Z" fill="white"/>
<path fill-rule="evenodd" clip-rule="evenodd" d="M28.2279 18.3779C27.96 18.4483 27.7624 18.4908 27.565 18.4908C27.1419 18.4908 26.8879 18.2227 26.8879 17.7431C26.8879 17.6445 26.902 17.5457 26.9161 17.4328L26.9725 17.1086L27.0149 16.8405L27.3957 14.5272H28.242L28.1432 15.0351H28.6793L28.5523 15.8814H28.0162L27.7906 17.2636C27.7765 17.3343 27.7765 17.3765 27.7765 17.4047C27.7765 17.5882 27.8612 17.6586 28.0727 17.6586C28.1715 17.6586 28.256 17.6446 28.3406 17.6303L28.2279 18.3779ZM30.9645 18.3497C30.6542 18.4344 30.3721 18.4765 30.0617 18.4765C29.1025 18.4765 28.5523 17.9687 28.5523 16.9675C28.5523 15.7966 29.2012 14.9502 30.1039 14.9502C30.8232 14.9502 31.2887 15.4298 31.2887 16.1772C31.2887 16.4314 31.2605 16.6711 31.1901 17.0096H29.4269C29.4127 17.0661 29.4127 17.0943 29.4127 17.1225C29.4127 17.5175 29.6807 17.7148 30.1885 17.7148C30.5129 17.7148 30.795 17.6445 31.1054 17.5035L30.9645 18.3497ZM30.4425 16.3326V16.1633C30.4425 15.8812 30.2873 15.726 30.0194 15.726C29.7371 15.726 29.5397 15.9375 29.4551 16.3325H30.4425V16.3326ZM21.4572 18.4201H20.5827L21.0905 15.2183L19.948 18.4201H19.3416L19.271 15.2324L18.735 18.4201H17.8745L18.5656 14.2591H19.8492L19.8775 16.8265L20.7379 14.2591H22.1485L21.4572 18.4201ZM23.5874 16.911C23.5027 16.8967 23.4745 16.8967 23.418 16.8967C22.9102 16.8967 22.6563 17.0941 22.6563 17.4046C22.6563 17.6162 22.7833 17.7574 22.9807 17.7574C23.4039 17.7574 23.5731 17.4046 23.5874 16.911ZM24.2926 18.4201H23.5309L23.545 18.0676C23.3475 18.3354 23.0795 18.4765 22.614 18.4765C22.1908 18.4765 21.8241 18.0959 21.8241 17.5457C21.8241 17.3906 21.8523 17.2497 21.8947 17.1086C22.0356 16.5865 22.5576 16.2622 23.3616 16.2479C23.4604 16.2479 23.6154 16.2479 23.7565 16.2622C23.7846 16.1493 23.7846 16.1068 23.7846 16.0364C23.7846 15.8107 23.6013 15.7401 23.1922 15.7401C22.9384 15.7401 22.6562 15.7824 22.4588 15.853L22.3318 15.8812L22.2754 15.8952L22.4023 15.1335C22.8114 15.0065 23.1076 14.9502 23.4321 14.9502C24.1938 14.9502 24.6029 15.3028 24.6029 15.9516C24.6029 16.1209 24.617 16.2479 24.5605 16.6147L24.3631 17.8277L24.3349 18.0394L24.3208 18.2087L24.3067 18.3216L24.2926 18.4201ZM35.2244 15.0631C35.4782 15.0631 35.704 15.1337 36.0143 15.2887L36.1693 14.3859C36.0846 14.3436 36.0564 14.3436 35.9437 14.3013L35.5913 14.2025C35.4784 14.1743 35.3374 14.1602 35.182 14.1602C34.7446 14.1602 34.4908 14.1743 34.223 14.3295C34.0819 14.4283 33.8984 14.5553 33.7009 14.7809L33.588 14.7527L32.6852 15.3873L32.7277 15.0347H31.7965L31.2467 18.4199H32.1355L32.4597 16.6006C32.4597 16.6006 32.5869 16.3464 32.6432 16.2621C32.8125 16.0504 32.9535 16.0504 33.1367 16.0504H33.2075C33.1779 16.2654 33.1637 16.4822 33.165 16.6992C33.165 17.7994 33.7855 18.4906 34.7448 18.4906C34.9846 18.4906 35.1965 18.4624 35.5207 18.3777L35.6761 17.4187C35.394 17.5737 35.14 17.6443 34.9284 17.6443C34.4066 17.6443 34.096 17.2493 34.096 16.6288C34.0956 15.7119 34.5613 15.0631 35.2244 15.0631ZM42.714 14.2591L42.5168 15.4439C42.3051 15.1196 42.0511 14.9643 41.7126 14.9643C41.247 14.9643 40.8099 15.2323 40.5418 15.7401V15.7262L39.9776 15.3875L40.0341 15.0349H39.089L38.5529 18.4201H39.4275L39.7238 16.6007C39.7238 16.6007 39.9494 16.3466 40.0059 16.2622C40.147 16.0929 40.2879 16.0645 40.4008 16.0506C40.3022 16.3326 40.2458 16.6711 40.2458 17.0521C40.2458 17.8985 40.6829 18.4626 41.3316 18.4626C41.6562 18.4626 41.91 18.3497 42.1498 18.0816L42.1076 18.4201H42.94L43.617 14.2591H42.714ZM41.6281 17.6162C41.3318 17.6162 41.1768 17.3906 41.1768 16.9532C41.1768 16.2901 41.4588 15.8107 41.8677 15.8107C42.178 15.8107 42.3334 16.0506 42.3334 16.4737C42.3334 17.1507 42.0513 17.6162 41.6281 17.6162ZM37.5519 16.911C37.4672 16.8967 37.439 16.8967 37.3825 16.8967C36.8744 16.8967 36.6205 17.0941 36.6205 17.4046C36.6205 17.6162 36.7477 17.7574 36.9451 17.7574C37.3683 17.7574 37.5376 17.4046 37.5519 16.911ZM38.2571 18.4201H37.4811L37.5094 18.0676C37.312 18.3354 37.0437 18.4765 36.5785 18.4765C36.1411 18.4765 35.7604 18.1098 35.7604 17.5457C35.7604 16.7418 36.3667 16.2481 37.3259 16.2481C37.4249 16.2481 37.5798 16.2481 37.7069 16.2624C37.7351 16.1495 37.7494 16.107 37.7494 16.0366C37.7494 15.8108 37.566 15.7403 37.1428 15.7403C36.9029 15.7403 36.6068 15.7826 36.4094 15.8532L36.2965 15.8814L36.24 15.8953L36.3669 15.1337C36.7761 15.0067 37.0724 14.9504 37.3966 14.9504C38.1583 14.9504 38.5533 15.303 38.5533 15.9518C38.5533 16.1211 38.5815 16.2481 38.5111 16.6148L38.3276 17.8279L38.2994 18.0396L38.2712 18.2089L38.2573 18.3218V18.4201H38.2571ZM26.1403 15.7542C26.3096 15.7542 26.5494 15.7683 26.8034 15.8107L26.9304 15.0208C26.6764 14.9926 26.3379 14.9502 26.1403 14.9502C25.153 14.9502 24.8286 15.4863 24.8286 16.1068C24.8286 16.5161 25.0119 16.8121 25.4915 17.0377C25.8441 17.207 25.9006 17.2351 25.9006 17.3905C25.9006 17.6018 25.7173 17.729 25.3786 17.729C25.1107 17.729 24.8567 17.6865 24.5746 17.5878L24.4759 18.3635L24.4898 18.3777L24.6591 18.406C24.7156 18.4199 24.7861 18.4342 24.8849 18.4481C25.0964 18.4624 25.2799 18.4764 25.3927 18.4764C26.3802 18.4764 26.7892 18.0957 26.7892 17.348C26.7892 16.8826 26.5635 16.6006 26.1262 16.4032C25.7454 16.2337 25.703 16.2058 25.703 16.0504C25.703 15.8953 25.8724 15.7542 26.1403 15.7542Z" fill="#7A809B"/>
<path fill-rule="evenodd" clip-rule="evenodd" d="M36.4101 14.1158L36.2547 15.0186C35.9445 14.8634 35.7187 14.793 35.4649 14.793C34.8018 14.793 34.3365 15.4418 34.3365 16.3586C34.3365 16.9935 34.6467 17.3742 35.1688 17.3742C35.3802 17.3742 35.6342 17.3038 35.9162 17.1628L35.7612 18.1076C35.4366 18.1923 35.2251 18.2348 34.9852 18.2348C34.0262 18.2348 33.4337 17.5435 33.4337 16.4294C33.4337 14.9482 34.2518 13.9043 35.4225 13.9043C35.5776 13.9043 35.7185 13.9184 35.8314 13.9466L36.1842 14.0313C36.2972 14.0736 36.3255 14.0877 36.4101 14.1158ZM33.5607 14.7365H33.476C33.18 14.7365 33.0107 14.8776 32.7426 15.2865L32.8272 14.7646H32.0231L31.4732 18.1499H32.3621C32.6863 16.0764 32.771 15.7238 33.1941 15.7238H33.2506C33.3352 15.3148 33.448 15.0184 33.5891 14.7505L33.5607 14.7365ZM28.4546 18.1076C28.2149 18.1923 28.0173 18.2205 27.82 18.2205C27.3686 18.2205 27.1146 17.9667 27.1146 17.4731C27.1146 17.3884 27.1287 17.2757 27.1428 17.1768L27.1992 16.8383L27.2416 16.5705L27.6224 14.2569H28.497L28.3982 14.7647H28.8496L28.7367 15.597H28.2853L28.0456 17.0076C28.0315 17.064 28.0315 17.1065 28.0315 17.1487C28.0315 17.318 28.1161 17.3886 28.3276 17.3886C28.4264 17.3886 28.5109 17.3886 28.5673 17.3604L28.4546 18.1076ZM25.0552 15.8367C25.0552 16.26 25.2526 16.556 25.7181 16.7818C26.0848 16.9512 26.1412 17.0074 26.1412 17.1485C26.1412 17.3602 25.986 17.4588 25.6334 17.4588C25.3655 17.4588 25.1256 17.4167 24.8435 17.332L24.7165 18.1076L24.7588 18.1219L24.9141 18.1501C24.9703 18.1641 25.0411 18.1783 25.1538 18.1783C25.3512 18.2066 25.5205 18.2066 25.6334 18.2066C26.5642 18.2066 27.0017 17.8538 27.0017 17.0782C27.0017 16.6125 26.8184 16.3444 26.3811 16.133C26.0003 15.9637 25.958 15.9215 25.958 15.7663C25.958 15.583 26.1132 15.4984 26.3952 15.4984C26.5646 15.4984 26.8043 15.5125 27.0301 15.5407L27.1569 14.7649C26.9313 14.7226 26.5787 14.6944 26.3811 14.6944C25.3937 14.6942 25.0411 15.2161 25.0552 15.8367ZM43.1667 18.1501H42.3343L42.3768 17.8256C42.1369 18.0794 41.8829 18.1923 41.5584 18.1923C40.9096 18.1923 40.4864 17.6424 40.4864 16.7961C40.4864 15.6675 41.1495 14.7083 41.9251 14.7083C42.2779 14.7083 42.5317 14.8635 42.7717 15.1738L42.9691 13.989H43.8437L43.1667 18.1501ZM41.8688 17.3602C42.278 17.3602 42.5601 16.8806 42.5601 16.2175C42.5601 15.7803 42.4047 15.5545 42.0944 15.5545C41.6995 15.5545 41.4035 16.02 41.4035 16.683C41.4035 17.1346 41.5585 17.3602 41.8688 17.3602ZM31.1628 18.0794C30.8523 18.1783 30.5703 18.2205 30.2459 18.2205C29.2585 18.2205 28.7506 17.6987 28.7506 16.6972C28.7506 15.5405 29.3996 14.6801 30.2882 14.6801C31.0217 14.6801 31.487 15.1597 31.487 15.9073C31.487 16.1613 31.4588 16.4012 31.3741 16.7536H29.6253C29.6112 16.7961 29.6112 16.8243 29.6112 16.8525C29.6112 17.2475 29.8793 17.4449 30.387 17.4449C30.7114 17.4449 30.9935 17.3884 31.3039 17.2332L31.1628 18.0794ZM30.6691 16.0623V15.8931C30.6691 15.6111 30.5138 15.4559 30.2459 15.4559C29.9638 15.4559 29.7663 15.6675 29.6816 16.0623H30.6691ZM21.6839 18.1501H20.8094L21.3172 14.948L20.1747 18.1501H19.5681L19.4976 14.9763L18.9617 18.1501H18.1436L18.8347 13.989H20.1042L20.1465 16.5703L20.9927 13.989H22.3751L21.6839 18.1501ZM23.8703 16.6407C23.7857 16.6407 23.7433 16.6268 23.6728 16.6268C23.1791 16.6268 22.9252 16.81 22.9252 17.1485C22.9252 17.3602 23.0381 17.487 23.2355 17.487C23.6022 17.487 23.8562 17.1485 23.8703 16.6407ZM24.5191 18.1501H23.7855L23.7996 17.7973C23.5738 18.0794 23.2777 18.2066 22.8686 18.2066C22.389 18.2066 22.0646 17.8398 22.0646 17.2897C22.0646 16.4576 22.6287 15.978 23.6162 15.978C23.715 15.978 23.842 15.9921 23.9829 16.006C24.0111 15.8933 24.0111 15.851 24.0111 15.7945C24.0111 15.5689 23.8559 15.4843 23.4468 15.4843C23.193 15.4843 22.9108 15.5125 22.7134 15.5689L22.5864 15.6113L22.5017 15.6254L22.6287 14.8637C23.066 14.7367 23.3622 14.6944 23.6867 14.6944C24.4484 14.6944 24.8575 15.0329 24.8575 15.6816C24.8575 15.851 24.8433 15.978 24.7869 16.3588L24.5893 17.5579L24.5611 17.7693L24.547 17.9386L24.5329 18.0658L24.5191 18.1501ZM37.8349 16.6407C37.7359 16.6407 37.6937 16.6268 37.6375 16.6268C37.1296 16.6268 36.8755 16.81 36.8755 17.1485C36.8755 17.3602 37.0026 17.487 37.2 17.487C37.5528 17.487 37.8206 17.1485 37.8349 16.6407ZM38.4836 18.1501H37.7502L37.7641 17.7973C37.5385 18.0794 37.2424 18.2066 36.8333 18.2066C36.3537 18.2066 36.0291 17.8398 36.0291 17.2897C36.0291 16.4576 36.5932 15.978 37.5807 15.978C37.6796 15.978 37.8066 15.9921 37.9335 16.006C37.9617 15.8933 37.976 15.851 37.976 15.7945C37.976 15.5689 37.8206 15.4843 37.4119 15.4843C37.1577 15.4843 36.8617 15.5125 36.6641 15.5689L36.5512 15.6113L36.4666 15.6254L36.5934 14.8637C37.0309 14.7367 37.3269 14.6944 37.6514 14.6944C38.4131 14.6944 38.808 15.0329 38.808 15.6816C38.808 15.851 38.808 15.978 38.7376 16.3588L38.5542 17.5579L38.526 17.7693L38.4977 17.9386L38.4838 18.0658V18.1501H38.4836ZM40.8533 14.7365H40.7686C40.4726 14.7365 40.3033 14.8776 40.0352 15.2865L40.1199 14.7646H39.3157L38.7796 18.1499H39.6542C39.9787 16.0764 40.0634 15.7238 40.4866 15.7238H40.543C40.6277 15.3148 40.7404 15.0184 40.8815 14.7505L40.8533 14.7365Z" fill="white"/>
<path d="M74.8131 11.2383L73.1868 20.782H75.7878L77.4154 11.2383H74.8131Z" fill="#7A809B"/>
<path d="M71.0057 11.2491L68.4582 17.7576L68.1866 16.7749C67.6842 15.5908 66.258 13.8902 64.5835 12.8185L66.9129 20.7774L69.6651 20.7727L73.7612 11.2471L71.0057 11.2491Z" fill="#7A809B"/>
<path d="M67.1993 11.9316C67.0481 11.3503 66.6099 11.177 66.0661 11.1562H62.0334L62 11.3462C65.1382 12.1075 67.2147 13.9419 68.0763 16.1475L67.1993 11.9316Z" fill="#7A809B"/>
<path d="M82.6868 13.0678C83.5378 13.0544 84.1546 13.2404 84.6336 13.433L84.8684 13.5434L85.2203 11.4749C84.7052 11.2816 83.8977 11.0742 82.8902 11.0742C80.32 11.0742 78.5084 12.3687 78.4943 14.2238C78.4776 15.5945 79.7848 16.3598 80.7722 16.8167C81.7857 17.285 82.1256 17.5827 82.1209 18.0008C82.1129 18.6397 81.3128 18.9327 80.5655 18.9327C79.5239 18.9327 78.9707 18.7889 78.1164 18.433L77.7812 18.2805L77.4153 20.4165C78.0241 20.6834 79.1473 20.9129 80.3133 20.925C83.0474 20.925 84.8242 19.6459 84.843 17.6637C84.8543 16.5793 84.1606 15.7517 82.6574 15.0727C81.7476 14.6298 81.191 14.3355 81.1964 13.8886C81.1964 13.4919 81.6687 13.0678 82.6868 13.0678Z" fill="#7A809B"/>
<path d="M91.8955 11.249H89.8859C89.2617 11.249 88.7974 11.4189 88.5232 12.0411L84.6611 20.7873H87.3926C87.3926 20.7873 87.8381 19.6113 87.9391 19.3537C88.2382 19.3537 90.892 19.3577 91.27 19.3577C91.3476 19.6909 91.5871 20.7873 91.5871 20.7873H94.0001L91.8955 11.249ZM88.6877 17.4003C88.9018 16.8524 89.724 14.7331 89.724 14.7331C89.7099 14.7592 89.936 14.1812 90.0705 13.8219L90.2458 14.6448C90.2458 14.6448 90.7442 16.9233 90.8485 17.4003H88.6877Z" fill="#7A809B"/>
</svg>
