<svg width="315" height="188" viewBox="0 0 315 188" fill="none" xmlns="http://www.w3.org/2000/svg">
<rect y="0.577148" width="315" height="187.183" rx="30" fill="url(#paint0_linear)"/>
<mask id="mask0" mask-type="alpha" maskUnits="userSpaceOnUse" x="0" y="0" width="315" height="188">
<rect y="0.577148" width="315" height="187.183" rx="30" fill="#ED713C"/>
</mask>
<g mask="url(#mask0)">
<ellipse opacity="0.1" cx="24.5" cy="211" rx="160.5" ry="113" fill="black"/>
<ellipse opacity="0.08" cx="290.5" cy="-31" rx="160.5" ry="113" fill="black"/>
</g>
<path d="M251.573 162.796C250.91 163.72 249.982 164.182 248.787 164.182C247.592 164.182 246.664 163.72 246.001 162.796C245.338 161.872 245.007 160.64 245.007 159.1C245.007 157.56 245.338 156.328 246.001 155.404C246.664 154.48 247.592 154.018 248.787 154.018C249.982 154.018 250.91 154.48 251.573 155.404C252.236 156.328 252.567 157.56 252.567 159.1C252.567 160.64 252.236 161.872 251.573 162.796ZM246.953 161.914C247.382 162.577 247.994 162.908 248.787 162.908C249.58 162.908 250.192 162.577 250.621 161.914C251.06 161.251 251.279 160.313 251.279 159.1C251.279 157.887 251.06 156.949 250.621 156.286C250.192 155.614 249.58 155.278 248.787 155.278C247.994 155.278 247.382 155.609 246.953 156.272C246.524 156.935 246.309 157.877 246.309 159.1C246.309 160.313 246.524 161.251 246.953 161.914ZM260.835 157.308C260.835 158.064 260.635 158.722 260.233 159.282H260.247L257.083 164H255.613L257.937 160.57C257.732 160.589 257.573 160.598 257.461 160.598C256.472 160.598 255.66 160.295 255.025 159.688C254.4 159.072 254.087 158.279 254.087 157.308C254.087 156.337 254.4 155.549 255.025 154.942C255.66 154.326 256.472 154.018 257.461 154.018C258.451 154.018 259.258 154.326 259.883 154.942C260.518 155.549 260.835 156.337 260.835 157.308ZM255.949 155.824C255.567 156.197 255.375 156.692 255.375 157.308C255.375 157.924 255.567 158.423 255.949 158.806C256.341 159.179 256.845 159.366 257.461 159.366C258.077 159.366 258.577 159.179 258.959 158.806C259.351 158.423 259.547 157.924 259.547 157.308C259.547 156.692 259.356 156.197 258.973 155.824C258.591 155.451 258.087 155.264 257.461 155.264C256.845 155.264 256.341 155.451 255.949 155.824ZM262.989 165.4H262.261L267.861 152.8H268.589L262.989 165.4ZM270.129 164V162.936L273.587 159.408C274.511 158.484 274.973 157.691 274.973 157.028C274.973 156.477 274.805 156.048 274.469 155.74C274.133 155.432 273.722 155.278 273.237 155.278C272.313 155.278 271.641 155.717 271.221 156.594L270.129 155.95C270.437 155.315 270.862 154.835 271.403 154.508C271.954 154.181 272.56 154.018 273.223 154.018C274.044 154.018 274.758 154.289 275.365 154.83C275.972 155.371 276.275 156.099 276.275 157.014C276.275 158.003 275.692 159.081 274.525 160.248L272.019 162.74H276.457V164H270.129ZM281.178 158.022C282.102 158.022 282.882 158.297 283.516 158.848C284.16 159.389 284.482 160.141 284.482 161.102C284.482 162.054 284.156 162.805 283.502 163.356C282.849 163.907 282.056 164.182 281.122 164.182C280.376 164.182 279.708 164.005 279.12 163.65C278.532 163.286 278.122 162.763 277.888 162.082L278.994 161.452C279.125 161.928 279.377 162.292 279.75 162.544C280.124 162.787 280.581 162.908 281.122 162.908C281.738 162.908 282.238 162.749 282.62 162.432C283.003 162.115 283.194 161.671 283.194 161.102C283.194 160.533 283.003 160.089 282.62 159.772C282.238 159.445 281.748 159.282 281.15 159.282H278.378L278.742 154.2H284.104V155.418H279.918L279.75 158.022H281.178Z" fill="white"/>
<path opacity="0.9" d="M33.78 158.022C34.704 158.022 35.4833 158.297 36.118 158.848C36.762 159.389 37.084 160.141 37.084 161.102C37.084 162.054 36.7573 162.805 36.104 163.356C35.4507 163.907 34.6573 164.182 33.724 164.182C32.9773 164.182 32.31 164.005 31.722 163.65C31.134 163.286 30.7233 162.763 30.49 162.082L31.596 161.452C31.7267 161.928 31.9787 162.292 32.352 162.544C32.7253 162.787 33.1827 162.908 33.724 162.908C34.34 162.908 34.8393 162.749 35.222 162.432C35.6047 162.115 35.796 161.671 35.796 161.102C35.796 160.533 35.6047 160.089 35.222 159.772C34.8393 159.445 34.3493 159.282 33.752 159.282H30.98L31.344 154.2H36.706V155.418H32.52L32.352 158.022H33.78ZM38.1134 164V162.936L41.5714 159.408C42.4954 158.484 42.9574 157.691 42.9574 157.028C42.9574 156.477 42.7894 156.048 42.4534 155.74C42.1174 155.432 41.7067 155.278 41.2214 155.278C40.2974 155.278 39.6254 155.717 39.2054 156.594L38.1134 155.95C38.4214 155.315 38.846 154.835 39.3874 154.508C39.938 154.181 40.5447 154.018 41.2074 154.018C42.0287 154.018 42.7427 154.289 43.3494 154.83C43.956 155.371 44.2594 156.099 44.2594 157.014C44.2594 158.003 43.676 159.081 42.5094 160.248L40.0034 162.74H44.4414V164H38.1134ZM51.1358 158.932C51.6118 159.175 51.9852 159.501 52.2558 159.912C52.5265 160.323 52.6618 160.789 52.6618 161.312C52.6618 162.208 52.3492 162.913 51.7238 163.426C51.0985 163.93 50.2912 164.182 49.3018 164.182C48.3218 164.182 47.5192 163.93 46.8938 163.426C46.2685 162.913 45.9558 162.208 45.9558 161.312C45.9558 160.789 46.0912 160.323 46.3618 159.912C46.6325 159.501 47.0058 159.175 47.4818 158.932C46.6792 158.428 46.2778 157.714 46.2778 156.79C46.2778 155.903 46.5718 155.222 47.1598 154.746C47.7572 154.261 48.4712 154.018 49.3018 154.018C50.1418 154.018 50.8558 154.261 51.4438 154.746C52.0412 155.222 52.3398 155.903 52.3398 156.79C52.3398 157.714 51.9385 158.428 51.1358 158.932ZM49.3018 155.264C48.8072 155.264 48.3918 155.395 48.0558 155.656C47.7292 155.917 47.5658 156.305 47.5658 156.818C47.5658 157.313 47.7338 157.7 48.0698 157.98C48.4058 158.251 48.8165 158.386 49.3018 158.386C49.7872 158.386 50.1978 158.251 50.5338 157.98C50.8698 157.7 51.0378 157.313 51.0378 156.818C51.0378 156.305 50.8745 155.917 50.5478 155.656C50.2212 155.395 49.8058 155.264 49.3018 155.264ZM49.3018 162.936C49.9272 162.936 50.4265 162.791 50.7998 162.502C51.1825 162.203 51.3738 161.779 51.3738 161.228C51.3738 160.687 51.1825 160.271 50.7998 159.982C50.4265 159.683 49.9272 159.534 49.3018 159.534C48.6858 159.534 48.1865 159.683 47.8038 159.982C47.4305 160.271 47.2438 160.687 47.2438 161.228C47.2438 161.779 47.4305 162.203 47.8038 162.502C48.1865 162.791 48.6858 162.936 49.3018 162.936ZM53.92 164V162.936L57.378 159.408C58.302 158.484 58.764 157.691 58.764 157.028C58.764 156.477 58.596 156.048 58.26 155.74C57.924 155.432 57.5133 155.278 57.028 155.278C56.104 155.278 55.432 155.717 55.012 156.594L53.92 155.95C54.228 155.315 54.6527 154.835 55.194 154.508C55.7447 154.181 56.3513 154.018 57.014 154.018C57.8353 154.018 58.5493 154.289 59.156 154.83C59.7627 155.371 60.066 156.099 60.066 157.014C60.066 158.003 59.4827 159.081 58.316 160.248L55.81 162.74H60.248V164H53.92ZM69.7228 158.218C70.4695 158.358 71.0808 158.68 71.5568 159.184C72.0328 159.688 72.2708 160.327 72.2708 161.102C72.2708 162.054 71.9442 162.805 71.2908 163.356C70.6375 163.907 69.8442 164.182 68.9108 164.182C68.1642 164.182 67.5015 164.014 66.9228 163.678C66.3442 163.333 65.9335 162.838 65.6908 162.194L66.7828 161.55C67.0722 162.455 67.7815 162.908 68.9108 162.908C69.5175 162.908 70.0122 162.749 70.3948 162.432C70.7775 162.115 70.9688 161.671 70.9688 161.102C70.9688 160.533 70.7775 160.089 70.3948 159.772C70.0122 159.445 69.5175 159.282 68.9108 159.282H68.5748L68.0568 158.484L70.3248 155.418H65.9708V154.2H71.8508V155.348L69.7228 158.218ZM81.3905 160.92V162.138H80.2005V164H78.8985V162.138H73.9005V160.92L77.4145 154.2H78.8145L75.3005 160.92H78.8985V158.148H80.2005V160.92H81.3905ZM85.9655 158.022C86.8895 158.022 87.6689 158.297 88.3035 158.848C88.9475 159.389 89.2695 160.141 89.2695 161.102C89.2695 162.054 88.9429 162.805 88.2895 163.356C87.6362 163.907 86.8429 164.182 85.9095 164.182C85.1629 164.182 84.4955 164.005 83.9075 163.65C83.3195 163.286 82.9089 162.763 82.6755 162.082L83.7815 161.452C83.9122 161.928 84.1642 162.292 84.5375 162.544C84.9109 162.787 85.3682 162.908 85.9095 162.908C86.5255 162.908 87.0249 162.749 87.4075 162.432C87.7902 162.115 87.9815 161.671 87.9815 161.102C87.9815 160.533 87.7902 160.089 87.4075 159.772C87.0249 159.445 86.5349 159.282 85.9375 159.282H83.1655L83.5295 154.2H88.8915V155.418H84.7055L84.5375 158.022H85.9655ZM94.0531 157.588C95.0331 157.588 95.8404 157.896 96.4751 158.512C97.1098 159.119 97.4271 159.907 97.4271 160.878C97.4271 161.849 97.1098 162.642 96.4751 163.258C95.8404 163.874 95.0331 164.182 94.0531 164.182C93.0638 164.182 92.2518 163.874 91.6171 163.258C90.9918 162.642 90.6791 161.849 90.6791 160.878C90.6791 160.122 90.8751 159.469 91.2671 158.918L94.4171 154.2H95.9011L93.5911 157.616C93.7964 157.597 93.9504 157.588 94.0531 157.588ZM92.5411 162.376C92.9331 162.749 93.4371 162.936 94.0531 162.936C94.6691 162.936 95.1684 162.749 95.5511 162.376C95.9431 161.993 96.1391 161.494 96.1391 160.878C96.1391 160.262 95.9431 159.767 95.5511 159.394C95.1684 159.021 94.6691 158.834 94.0531 158.834C93.4278 158.834 92.9238 159.021 92.5411 159.394C92.1584 159.767 91.9671 160.262 91.9671 160.878C91.9671 161.494 92.1584 161.993 92.5411 162.376ZM102.572 154.2H108.69V155.362L105.12 164H103.762L107.304 155.432H102.572V154.2ZM114.849 158.932C115.325 159.175 115.698 159.501 115.969 159.912C116.239 160.323 116.375 160.789 116.375 161.312C116.375 162.208 116.062 162.913 115.437 163.426C114.811 163.93 114.004 164.182 113.015 164.182C112.035 164.182 111.232 163.93 110.607 163.426C109.981 162.913 109.669 162.208 109.669 161.312C109.669 160.789 109.804 160.323 110.075 159.912C110.345 159.501 110.719 159.175 111.195 158.932C110.392 158.428 109.991 157.714 109.991 156.79C109.991 155.903 110.285 155.222 110.873 154.746C111.47 154.261 112.184 154.018 113.015 154.018C113.855 154.018 114.569 154.261 115.157 154.746C115.754 155.222 116.053 155.903 116.053 156.79C116.053 157.714 115.651 158.428 114.849 158.932ZM113.015 155.264C112.52 155.264 112.105 155.395 111.769 155.656C111.442 155.917 111.279 156.305 111.279 156.818C111.279 157.313 111.447 157.7 111.783 157.98C112.119 158.251 112.529 158.386 113.015 158.386C113.5 158.386 113.911 158.251 114.247 157.98C114.583 157.7 114.751 157.313 114.751 156.818C114.751 156.305 114.587 155.917 114.261 155.656C113.934 155.395 113.519 155.264 113.015 155.264ZM113.015 162.936C113.64 162.936 114.139 162.791 114.513 162.502C114.895 162.203 115.087 161.779 115.087 161.228C115.087 160.687 114.895 160.271 114.513 159.982C114.139 159.683 113.64 159.534 113.015 159.534C112.399 159.534 111.899 159.683 111.517 159.982C111.143 160.271 110.957 160.687 110.957 161.228C110.957 161.779 111.143 162.203 111.517 162.502C111.899 162.791 112.399 162.936 113.015 162.936ZM124.542 157.308C124.542 158.064 124.342 158.722 123.94 159.282H123.954L120.79 164H119.32L121.644 160.57C121.439 160.589 121.28 160.598 121.168 160.598C120.179 160.598 119.367 160.295 118.732 159.688C118.107 159.072 117.794 158.279 117.794 157.308C117.794 156.337 118.107 155.549 118.732 154.942C119.367 154.326 120.179 154.018 121.168 154.018C122.158 154.018 122.965 154.326 123.59 154.942C124.225 155.549 124.542 156.337 124.542 157.308ZM119.656 155.824C119.274 156.197 119.082 156.692 119.082 157.308C119.082 157.924 119.274 158.423 119.656 158.806C120.048 159.179 120.552 159.366 121.168 159.366C121.784 159.366 122.284 159.179 122.666 158.806C123.058 158.423 123.254 157.924 123.254 157.308C123.254 156.692 123.063 156.197 122.68 155.824C122.298 155.451 121.794 155.264 121.168 155.264C120.552 155.264 120.048 155.451 119.656 155.824ZM132.632 162.796C131.969 163.72 131.04 164.182 129.846 164.182C128.651 164.182 127.722 163.72 127.06 162.796C126.397 161.872 126.066 160.64 126.066 159.1C126.066 157.56 126.397 156.328 127.06 155.404C127.722 154.48 128.651 154.018 129.846 154.018C131.04 154.018 131.969 154.48 132.632 155.404C133.294 156.328 133.626 157.56 133.626 159.1C133.626 160.64 133.294 161.872 132.632 162.796ZM128.012 161.914C128.441 162.577 129.052 162.908 129.846 162.908C130.639 162.908 131.25 162.577 131.68 161.914C132.118 161.251 132.338 160.313 132.338 159.1C132.338 157.887 132.118 156.949 131.68 156.286C131.25 155.614 130.639 155.278 129.846 155.278C129.052 155.278 128.441 155.609 128.012 156.272C127.582 156.935 127.368 157.877 127.368 159.1C127.368 160.313 127.582 161.251 128.012 161.914ZM141.526 154.2H142.646V164H141.358V155.6L139.272 156.216L138.95 155.096L141.526 154.2ZM144.748 164V162.936L148.206 159.408C149.13 158.484 149.592 157.691 149.592 157.028C149.592 156.477 149.424 156.048 149.088 155.74C148.752 155.432 148.341 155.278 147.856 155.278C146.932 155.278 146.26 155.717 145.84 156.594L144.748 155.95C145.056 155.315 145.481 154.835 146.022 154.508C146.573 154.181 147.179 154.018 147.842 154.018C148.663 154.018 149.377 154.289 149.984 154.83C150.591 155.371 150.894 156.099 150.894 157.014C150.894 158.003 150.311 159.081 149.144 160.248L146.638 162.74H151.076V164H144.748ZM157.771 158.932C158.247 159.175 158.62 159.501 158.891 159.912C159.161 160.323 159.297 160.789 159.297 161.312C159.297 162.208 158.984 162.913 158.359 163.426C157.733 163.93 156.926 164.182 155.937 164.182C154.957 164.182 154.154 163.93 153.529 163.426C152.903 162.913 152.591 162.208 152.591 161.312C152.591 160.789 152.726 160.323 152.997 159.912C153.267 159.501 153.641 159.175 154.117 158.932C153.314 158.428 152.913 157.714 152.913 156.79C152.913 155.903 153.207 155.222 153.795 154.746C154.392 154.261 155.106 154.018 155.937 154.018C156.777 154.018 157.491 154.261 158.079 154.746C158.676 155.222 158.975 155.903 158.975 156.79C158.975 157.714 158.573 158.428 157.771 158.932ZM155.937 155.264C155.442 155.264 155.027 155.395 154.691 155.656C154.364 155.917 154.201 156.305 154.201 156.818C154.201 157.313 154.369 157.7 154.705 157.98C155.041 158.251 155.451 158.386 155.937 158.386C156.422 158.386 156.833 158.251 157.169 157.98C157.505 157.7 157.673 157.313 157.673 156.818C157.673 156.305 157.509 155.917 157.183 155.656C156.856 155.395 156.441 155.264 155.937 155.264ZM155.937 162.936C156.562 162.936 157.061 162.791 157.435 162.502C157.817 162.203 158.009 161.779 158.009 161.228C158.009 160.687 157.817 160.271 157.435 159.982C157.061 159.683 156.562 159.534 155.937 159.534C155.321 159.534 154.821 159.683 154.439 159.982C154.065 160.271 153.879 160.687 153.879 161.228C153.879 161.779 154.065 162.203 154.439 162.502C154.821 162.791 155.321 162.936 155.937 162.936ZM167.464 157.308C167.464 158.064 167.264 158.722 166.862 159.282H166.876L163.712 164H162.242L164.566 160.57C164.361 160.589 164.202 160.598 164.09 160.598C163.101 160.598 162.289 160.295 161.654 159.688C161.029 159.072 160.716 158.279 160.716 157.308C160.716 156.337 161.029 155.549 161.654 154.942C162.289 154.326 163.101 154.018 164.09 154.018C165.08 154.018 165.887 154.326 166.512 154.942C167.147 155.549 167.464 156.337 167.464 157.308ZM162.578 155.824C162.196 156.197 162.004 156.692 162.004 157.308C162.004 157.924 162.196 158.423 162.578 158.806C162.97 159.179 163.474 159.366 164.09 159.366C164.706 159.366 165.206 159.179 165.588 158.806C165.98 158.423 166.176 157.924 166.176 157.308C166.176 156.692 165.985 156.197 165.602 155.824C165.22 155.451 164.716 155.264 164.09 155.264C163.474 155.264 162.97 155.451 162.578 155.824Z" fill="white"/>
<path d="M256.417 29.0352H268.584V51.2758H256.417V29.0352Z" fill="#FF5F00"/>
<path d="M248.189 62.4705V60.1129C248.189 59.209 247.648 58.6197 246.721 58.6197C246.258 58.6197 245.756 58.7769 245.408 59.2877C245.138 58.8554 244.751 58.6197 244.172 58.6197C243.786 58.6197 243.4 58.7375 243.09 59.1698V58.6983H242.279V62.4705H243.09V60.3878C243.09 59.72 243.438 59.4055 243.979 59.4055C244.52 59.4055 244.79 59.7592 244.79 60.3878V62.4705H245.601V60.3878C245.601 59.72 245.987 59.4055 246.49 59.4055C247.03 59.4055 247.301 59.7592 247.301 60.3878V62.4705H248.189ZM260.202 58.6983H258.889V57.5588H258.078V58.6983H257.344V59.4447H258.077V61.1738C258.077 62.0384 258.425 62.5491 259.352 62.5491C259.7 62.5491 260.086 62.4313 260.357 62.2741L260.125 61.5667C259.893 61.7239 259.623 61.7633 259.429 61.7633C259.043 61.7633 258.889 61.5275 258.889 61.1344V59.4447H260.202V58.6983ZM267.077 58.6195C266.614 58.6195 266.305 58.8554 266.112 59.1698V58.6983H265.301V62.4705H266.112V60.3486C266.112 59.72 266.382 59.3663 266.884 59.3663C267.039 59.3663 267.232 59.4057 267.386 59.4449L267.618 58.6591C267.464 58.6197 267.232 58.6197 267.077 58.6197V58.6195ZM256.687 59.0126C256.301 58.7375 255.76 58.6197 255.18 58.6197C254.254 58.6197 253.636 59.0912 253.636 59.8378C253.636 60.4666 254.099 60.8201 254.91 60.9381L255.296 60.9775C255.721 61.0559 255.953 61.1738 255.953 61.3704C255.953 61.6453 255.644 61.8418 255.103 61.8418C254.563 61.8418 254.138 61.6453 253.867 61.4489L253.481 62.0776C253.906 62.3919 254.485 62.5491 255.064 62.5491C256.146 62.5491 256.764 62.0384 256.764 61.331C256.764 60.663 256.262 60.3093 255.489 60.1915L255.103 60.1521C254.756 60.1127 254.485 60.0343 254.485 59.7986C254.485 59.5235 254.756 59.3663 255.18 59.3663C255.644 59.3663 256.108 59.5627 256.339 59.6806L256.687 59.0126ZM278.241 58.6197C277.777 58.6197 277.468 58.8554 277.275 59.1698V58.6983H276.464V62.4705H277.275V60.3486C277.275 59.72 277.545 59.3663 278.047 59.3663C278.202 59.3663 278.395 59.4057 278.549 59.4449L278.781 58.6591C278.627 58.6197 278.395 58.6197 278.241 58.6197ZM267.889 60.5844C267.889 61.7239 268.661 62.5491 269.859 62.5491C270.399 62.5491 270.786 62.4313 271.172 62.117L270.786 61.4489C270.477 61.6847 270.168 61.8025 269.82 61.8025C269.163 61.8025 268.7 61.331 268.7 60.5844C268.7 59.8772 269.163 59.4055 269.82 59.3663C270.168 59.3663 270.477 59.4841 270.786 59.72L271.172 59.052C270.786 58.7375 270.399 58.6197 269.859 58.6197C268.661 58.6197 267.889 59.4449 267.889 60.5844ZM275.382 60.5844V58.6983H274.571V59.1698C274.301 58.8162 273.914 58.6197 273.412 58.6197C272.369 58.6197 271.558 59.4449 271.558 60.5844C271.558 61.7239 272.369 62.5491 273.412 62.5491C273.953 62.5491 274.339 62.3527 274.571 61.999V62.4705H275.382V60.5844ZM272.408 60.5844C272.408 59.9164 272.833 59.3663 273.528 59.3663C274.185 59.3663 274.648 59.8772 274.648 60.5844C274.648 61.2524 274.185 61.8025 273.528 61.8025C272.833 61.7631 272.408 61.2524 272.408 60.5844ZM262.713 58.6197C261.631 58.6197 260.859 59.4055 260.859 60.5844C260.859 61.7633 261.631 62.5491 262.751 62.5491C263.292 62.5491 263.833 62.3919 264.258 62.0384L263.871 61.4489C263.562 61.6847 263.176 61.8418 262.79 61.8418C262.288 61.8418 261.786 61.6061 261.67 60.9379H264.412V60.6238C264.451 59.4055 263.756 58.6197 262.713 58.6197H262.713ZM262.713 59.3269C263.215 59.3269 263.563 59.6414 263.64 60.2309H261.708C261.786 59.72 262.133 59.3269 262.713 59.3269ZM282.837 60.5844V57.2051H282.026V59.1698C281.755 58.8162 281.369 58.6197 280.867 58.6197C279.824 58.6197 279.013 59.4449 279.013 60.5844C279.013 61.7239 279.824 62.5491 280.867 62.5491C281.408 62.5491 281.794 62.3527 282.026 61.999V62.4705H282.837V60.5844ZM279.863 60.5844C279.863 59.9164 280.288 59.3663 280.983 59.3663C281.64 59.3663 282.103 59.8772 282.103 60.5844C282.103 61.2524 281.64 61.8025 280.983 61.8025C280.288 61.7631 279.863 61.2524 279.863 60.5844ZM252.747 60.5844V58.6983H251.936V59.1698C251.665 58.8162 251.279 58.6197 250.777 58.6197C249.734 58.6197 248.923 59.4449 248.923 60.5844C248.923 61.7239 249.734 62.5491 250.777 62.5491C251.318 62.5491 251.704 62.3527 251.936 61.999V62.4705H252.747V60.5844ZM249.734 60.5844C249.734 59.9164 250.159 59.3663 250.854 59.3663C251.511 59.3663 251.975 59.8772 251.975 60.5844C251.975 61.2524 251.511 61.8025 250.854 61.8025C250.159 61.7631 249.734 61.2524 249.734 60.5844Z" fill="white"/>
<path d="M257.189 40.1558C257.189 35.637 259.275 31.6289 262.48 29.0354C260.124 27.1493 257.15 26.0098 253.906 26.0098C246.219 26.0098 240 32.3361 240 40.1558C240 47.9753 246.219 54.3018 253.906 54.3018C257.15 54.3018 260.124 53.1623 262.48 51.2761C259.275 48.7219 257.189 44.6746 257.189 40.1558Z" fill="#EB001B"/>
<path d="M285 40.1558C285 47.9753 278.781 54.3018 271.094 54.3018C267.849 54.3018 264.875 53.1623 262.519 51.2761C265.764 48.6827 267.811 44.6746 267.811 40.1558C267.811 35.637 265.725 31.6289 262.519 29.0354C264.875 27.1493 267.849 26.0098 271.094 26.0098C278.781 26.0098 285 32.3755 285 40.1558H285Z" fill="#F79E1B"/>
<path d="M38.352 111.2C40.64 111.2 42.536 112.016 44.04 113.648C45.56 115.264 46.32 117.248 46.32 119.6C46.32 121.952 45.56 123.944 44.04 125.576C42.536 127.192 40.64 128 38.352 128H31.8V111.2H38.352ZM38.352 125.888C40.064 125.888 41.464 125.288 42.552 124.088C43.64 122.888 44.184 121.392 44.184 119.6C44.184 117.808 43.64 116.312 42.552 115.112C41.464 113.912 40.064 113.312 38.352 113.312H34.032V125.888H38.352ZM58.7466 116H60.8346V128H58.7466V125.936C57.7066 127.52 56.1946 128.312 54.2106 128.312C52.5306 128.312 51.0986 127.704 49.9146 126.488C48.7306 125.256 48.1386 123.76 48.1386 122C48.1386 120.24 48.7306 118.752 49.9146 117.536C51.0986 116.304 52.5306 115.688 54.2106 115.688C56.1946 115.688 57.7066 116.48 58.7466 118.064V116ZM54.4746 126.296C55.6906 126.296 56.7066 125.888 57.5226 125.072C58.3386 124.24 58.7466 123.216 58.7466 122C58.7466 120.784 58.3386 119.768 57.5226 118.952C56.7066 118.12 55.6906 117.704 54.4746 117.704C53.2746 117.704 52.2666 118.12 51.4506 118.952C50.6346 119.768 50.2266 120.784 50.2266 122C50.2266 123.216 50.6346 124.24 51.4506 125.072C52.2666 125.888 53.2746 126.296 54.4746 126.296ZM69.9741 115.688C71.3821 115.688 72.5101 116.136 73.3581 117.032C74.2061 117.912 74.6301 119.112 74.6301 120.632V128H72.5421V120.752C72.5421 119.776 72.2781 119.024 71.7501 118.496C71.2221 117.952 70.4941 117.68 69.5661 117.68C68.5261 117.68 67.6861 118.008 67.0461 118.664C66.4061 119.304 66.0861 120.296 66.0861 121.64V128H63.9981V116H66.0861V117.728C66.9341 116.368 68.2301 115.688 69.9741 115.688ZM87.5049 116H89.5689V127.496C89.5689 129.272 88.9689 130.648 87.7689 131.624C86.5689 132.616 85.1289 133.112 83.4489 133.112C82.1049 133.112 80.9449 132.856 79.9689 132.344C78.9929 131.848 78.2569 131.128 77.7609 130.184L79.5849 129.152C80.2409 130.496 81.5449 131.168 83.4969 131.168C84.7449 131.168 85.7209 130.84 86.4249 130.184C87.1449 129.528 87.5049 128.632 87.5049 127.496V125.792C86.4489 127.392 84.9449 128.192 82.9929 128.192C81.2809 128.192 79.8329 127.584 78.6489 126.368C77.4649 125.152 76.8729 123.672 76.8729 121.928C76.8729 120.184 77.4649 118.712 78.6489 117.512C79.8329 116.296 81.2809 115.688 82.9929 115.688C84.9609 115.688 86.4649 116.48 87.5049 118.064V116ZM80.1849 124.976C81.0009 125.792 82.0169 126.2 83.2329 126.2C84.4489 126.2 85.4649 125.792 86.2809 124.976C87.0969 124.16 87.5049 123.144 87.5049 121.928C87.5049 120.728 87.0969 119.72 86.2809 118.904C85.4649 118.088 84.4489 117.68 83.2329 117.68C82.0169 117.68 81.0009 118.088 80.1849 118.904C79.3689 119.72 78.9609 120.728 78.9609 121.928C78.9609 123.144 79.3689 124.16 80.1849 124.976ZM102.86 126.488C101.628 127.704 100.132 128.312 98.3724 128.312C96.6124 128.312 95.1164 127.704 93.8844 126.488C92.6684 125.272 92.0604 123.776 92.0604 122C92.0604 120.224 92.6684 118.728 93.8844 117.512C95.1164 116.296 96.6124 115.688 98.3724 115.688C100.132 115.688 101.628 116.296 102.86 117.512C104.092 118.728 104.708 120.224 104.708 122C104.708 123.776 104.092 125.272 102.86 126.488ZM98.3724 126.272C99.5724 126.272 100.58 125.864 101.396 125.048C102.212 124.232 102.62 123.216 102.62 122C102.62 120.784 102.212 119.768 101.396 118.952C100.58 118.136 99.5724 117.728 98.3724 117.728C97.1884 117.728 96.1884 118.136 95.3724 118.952C94.5564 119.768 94.1484 120.784 94.1484 122C94.1484 123.216 94.5564 124.232 95.3724 125.048C96.1884 125.864 97.1884 126.272 98.3724 126.272ZM113.44 118.016H110.248V124.52C110.248 125.112 110.36 125.536 110.584 125.792C110.824 126.032 111.184 126.16 111.664 126.176C112.144 126.176 112.736 126.16 113.44 126.128V128C111.616 128.24 110.28 128.096 109.432 127.568C108.584 127.024 108.16 126.008 108.16 124.52V118.016H105.784V116H108.16V113.264L110.248 112.64V116H113.44V118.016ZM116.767 122.96C116.975 124.032 117.463 124.864 118.231 125.456C119.015 126.048 119.975 126.344 121.111 126.344C122.695 126.344 123.847 125.76 124.567 124.592L126.343 125.6C125.175 127.408 123.415 128.312 121.063 128.312C119.159 128.312 117.607 127.72 116.407 126.536C115.223 125.336 114.631 123.824 114.631 122C114.631 120.192 115.215 118.688 116.383 117.488C117.551 116.288 119.063 115.688 120.919 115.688C122.679 115.688 124.111 116.312 125.215 117.56C126.335 118.792 126.895 120.28 126.895 122.024C126.895 122.328 126.871 122.64 126.823 122.96H116.767ZM120.919 117.656C119.799 117.656 118.871 117.976 118.135 118.616C117.399 119.24 116.943 120.08 116.767 121.136H124.783C124.607 120 124.159 119.136 123.439 118.544C122.719 117.952 121.879 117.656 120.919 117.656ZM145.951 111.2H148.183V128H146.383L137.743 115.448V128H135.511V111.2H137.311L145.951 123.728V111.2ZM152.617 113.816C152.217 113.816 151.881 113.68 151.609 113.408C151.337 113.136 151.201 112.808 151.201 112.424C151.201 112.04 151.337 111.712 151.609 111.44C151.881 111.152 152.217 111.008 152.617 111.008C153.001 111.008 153.329 111.152 153.601 111.44C153.873 111.712 154.009 112.04 154.009 112.424C154.009 112.808 153.873 113.136 153.601 113.408C153.329 113.68 153.001 113.816 152.617 113.816ZM151.561 128V116H153.649V128H151.561ZM166.794 116H168.858V127.496C168.858 129.272 168.258 130.648 167.058 131.624C165.858 132.616 164.418 133.112 162.738 133.112C161.394 133.112 160.234 132.856 159.258 132.344C158.282 131.848 157.546 131.128 157.05 130.184L158.874 129.152C159.53 130.496 160.834 131.168 162.786 131.168C164.034 131.168 165.01 130.84 165.714 130.184C166.434 129.528 166.794 128.632 166.794 127.496V125.792C165.738 127.392 164.234 128.192 162.282 128.192C160.57 128.192 159.122 127.584 157.938 126.368C156.754 125.152 156.162 123.672 156.162 121.928C156.162 120.184 156.754 118.712 157.938 117.512C159.122 116.296 160.57 115.688 162.282 115.688C164.25 115.688 165.754 116.48 166.794 118.064V116ZM159.474 124.976C160.29 125.792 161.306 126.2 162.522 126.2C163.738 126.2 164.754 125.792 165.57 124.976C166.386 124.16 166.794 123.144 166.794 121.928C166.794 120.728 166.386 119.72 165.57 118.904C164.754 118.088 163.738 117.68 162.522 117.68C161.306 117.68 160.29 118.088 159.474 118.904C158.658 119.72 158.25 120.728 158.25 121.928C158.25 123.144 158.658 124.16 159.474 124.976Z" fill="white"/>
<defs>
<linearGradient id="paint0_linear" x1="158.586" y1="-30.4558" x2="165.533" y2="211.187" gradientUnits="userSpaceOnUse">
<stop stop-color="#9C2CF3"/>
<stop offset="1" stop-color="#3A49F9"/>
</linearGradient>
</defs>
</svg>
