<svg width="56" height="56" viewBox="0 0 56 56" fill="none" xmlns="http://www.w3.org/2000/svg">
<rect width="56" height="56" rx="15" fill="#5DDAB4"/>
<path fill-rule="evenodd" clip-rule="evenodd" d="M33.9847 35.299C35.7513 33.8277 37.4312 32.4285 39.1487 30.9981C37.4383 29.5721 35.7535 28.1675 33.9919 26.6991C33.9919 27.1107 33.9909 27.4405 33.9921 27.7704C33.9963 28.9201 33.4185 29.4956 32.2689 29.4942C29.9735 29.4916 27.678 29.4922 25.3827 29.4924C25.2686 29.4925 25.1546 29.5028 24.9957 29.5105C24.9957 29.657 24.9957 29.7819 24.9957 29.9066C24.9956 30.7382 24.9917 31.5697 24.9965 32.4011C25.0004 33.0607 24.7363 33.5668 24.1317 33.8454C23.5311 34.1221 22.9706 34.0066 22.4652 33.585C20.0377 31.5597 17.6089 29.5359 15.1806 27.5117C14.6591 27.0768 14.1362 26.6434 13.6163 26.2065C12.8075 25.5267 12.7876 24.4887 13.599 23.8096C16.5622 21.3299 19.5336 18.86 22.5039 16.3887C22.9989 15.9769 23.5567 15.8801 24.1418 16.1571C24.7131 16.4275 24.9921 16.9055 24.994 17.5386C24.9966 18.3819 24.9952 19.2251 24.9956 20.0683C24.9956 20.1947 24.9956 20.321 24.9956 20.4979C25.5043 20.4979 25.9801 20.4884 26.4556 20.4999C27.343 20.5214 27.9957 21.1572 28.0007 21.991C28.0056 22.7847 27.3781 23.4771 26.5828 23.4946C25.5293 23.5178 24.4746 23.5164 23.4211 23.4934C22.6592 23.4766 22.0546 22.86 22.0172 22.0952C21.9962 21.6665 22.0134 21.2358 22.0134 20.7006C20.255 22.1649 18.5719 23.5665 16.8519 24.999C18.5623 26.4248 20.2471 27.8295 22.0067 29.2963C22.0067 28.8859 22.007 28.5559 22.0066 28.2257C22.0053 27.0702 22.5736 26.5024 23.7297 26.503C26.0018 26.504 28.2738 26.5046 30.5458 26.5054C30.6834 26.5054 30.8208 26.5054 31.0036 26.5054C31.0036 26.3404 31.0036 26.2157 31.0036 26.0909C31.0036 25.2828 31.0141 24.4746 31.0005 23.6667C30.9888 22.982 31.2319 22.4459 31.8663 22.1518C32.4977 21.8592 33.0666 22.0162 33.5891 22.4532C36.1398 24.5869 38.6954 26.7145 41.2492 28.8444C41.5819 29.1219 41.9139 29.4003 42.2479 29.6762C43.2416 30.4975 43.2528 31.4822 42.2685 32.3033C39.7058 34.4408 37.1403 36.5749 34.576 38.7104C34.216 39.0102 33.8581 39.3124 33.4959 39.6091C33.0097 40.0075 32.4641 40.1141 31.8888 39.8543C31.3009 39.5889 31.0064 39.1073 31.0044 38.4578C31.002 37.6146 31.0036 36.7714 31.0036 35.9282C31.0036 35.8019 31.0036 35.6757 31.0036 35.4993C30.4943 35.4993 30.0184 35.5093 29.543 35.4972C28.6548 35.4744 28.0025 34.8378 27.9985 34.0054C27.9946 33.2093 28.6192 32.5201 29.4161 32.5025C30.4696 32.4793 31.5244 32.481 32.5779 32.5036C33.339 32.5198 33.9442 33.1371 33.981 33.9018C34.0017 34.3303 33.9847 34.7609 33.9847 35.299Z" fill="url(#paint0_linear)"/>
<defs>
<linearGradient id="paint0_linear" x1="28" y1="16" x2="28" y2="39.996" gradientUnits="userSpaceOnUse">
<stop stop-color="white"/>
<stop offset="1" stop-color="white" stop-opacity="0.82"/>
</linearGradient>
</defs>
</svg>
