<svg width="56" height="56" viewBox="0 0 56 56" fill="none" xmlns="http://www.w3.org/2000/svg">
<rect width="56" height="56" rx="15" fill="#9694FF"/>
<g clip-path="url(#clip0)">
<path d="M21.0791 18.6664H31.0546L33.2075 16.9441C33.9405 16.3592 34.2142 15.4097 33.9044 14.5237C33.5945 13.6376 32.7894 13.0664 31.8535 13.0664H20.2802C19.3444 13.0664 18.5392 13.6389 18.2294 14.5237C17.9195 15.4085 18.1933 16.3592 18.925 16.9429L21.0791 18.6664Z" fill="url(#paint0_linear)"/>
<path d="M36.0223 28.2239L35.2009 29.0452C34.6783 29.5803 33.9689 29.8665 33.2223 29.8665C32.4756 29.8665 31.7663 29.5803 31.2436 29.0452C30.1485 27.9501 30.1485 26.183 31.2436 25.0879L33.2969 23.0345C32.6623 22.1012 31.9654 21.255 31.2187 20.5332H20.9147C17.5049 23.8683 14.8667 29.7296 14.8667 34.5332C14.8667 38.7145 17.0818 42.9332 22.0223 42.9332H30.4223C34.6409 42.9332 37.2667 39.7101 37.2667 34.5332C37.2667 32.5296 36.8063 30.3394 36.0223 28.2239ZM25.5938 30.7999H26.5396C27.9956 30.7999 29.1778 31.9821 29.1778 33.4381C29.1778 34.7448 28.232 35.8274 27 36.039V37.0221C27 37.5323 26.5769 37.9554 26.0667 37.9554C25.5565 37.9554 25.1334 37.5323 25.1334 37.0221V36.0888H23.8889C23.3787 36.0888 22.9556 35.6656 22.9556 35.1554C22.9556 34.6452 23.3787 34.2221 23.8889 34.2221H26.5396C26.9627 34.2221 27.3111 33.8736 27.3111 33.4505C27.3111 33.015 26.9627 32.6665 26.5396 32.6665H25.5938C24.1378 32.6665 22.9556 31.4843 22.9556 30.0283C22.9556 28.7216 23.9014 27.639 25.1334 27.4274V26.4443C25.1334 25.9341 25.5565 25.511 26.0667 25.511C26.5769 25.511 27 25.9341 27 26.4443V27.3776H28.2445C28.7547 27.3776 29.1778 27.8008 29.1778 28.311C29.1778 28.8212 28.7547 29.2443 28.2445 29.2443H25.5938C25.1707 29.2443 24.8223 29.5928 24.8223 30.0159C24.8223 30.4514 25.1707 30.7999 25.5938 30.7999Z" fill="url(#paint1_linear)"/>
<path d="M42.5559 20.5332H39.4448C39.0677 20.5332 38.7267 20.7609 38.5824 21.1094C38.438 21.4578 38.5177 21.8598 38.7852 22.1261L39.5916 22.9325L38.3808 24.05L36.7966 23.144C36.4307 22.935 35.9715 22.9972 35.6741 23.2959L32.563 26.407C32.1984 26.7716 32.1984 27.3627 32.563 27.7273C32.7447 27.909 32.9836 28.0011 33.2226 28.0011C33.4615 28.0011 33.7004 27.9103 33.8821 27.7273L36.4892 25.1202L38.0473 26.0112C38.4019 26.2141 38.845 26.1631 39.1436 25.8868L40.912 24.2553L41.8951 25.2384C42.0743 25.4164 42.3132 25.511 42.5559 25.511C42.6766 25.511 42.7973 25.4873 42.9131 25.44C43.2615 25.2957 43.4892 24.9547 43.4892 24.5776V21.4665C43.4892 20.9513 43.0711 20.5332 42.5559 20.5332Z" fill="url(#paint2_linear)"/>
</g>
<defs>
<linearGradient id="paint0_linear" x1="26.0669" y1="13.0664" x2="26.0669" y2="18.6664" gradientUnits="userSpaceOnUse">
<stop stop-color="white"/>
<stop offset="1" stop-color="white" stop-opacity="0.9"/>
</linearGradient>
<linearGradient id="paint1_linear" x1="26.0667" y1="20.5332" x2="26.0667" y2="42.9332" gradientUnits="userSpaceOnUse">
<stop stop-color="white"/>
<stop offset="1" stop-color="white" stop-opacity="0.9"/>
</linearGradient>
<linearGradient id="paint2_linear" x1="37.8894" y1="20.5332" x2="37.8894" y2="28.0011" gradientUnits="userSpaceOnUse">
<stop stop-color="white"/>
<stop offset="1" stop-color="white" stop-opacity="0.9"/>
</linearGradient>
<clipPath id="clip0">
<rect width="29.8667" height="29.8667" fill="white" transform="translate(14.8667 13.0664)"/>
</clipPath>
</defs>
</svg>
