<svg width="56" height="56" viewBox="0 0 56 56" fill="none" xmlns="http://www.w3.org/2000/svg">
<rect width="56" height="56" rx="15" fill="#5DDAB4"/>
<g clip-path="url(#clip0)">
<path d="M19.0791 18.6664H29.0546L31.2075 16.9441C31.9405 16.3592 32.2142 15.4097 31.9044 14.5237C31.5945 13.6376 30.7894 13.0664 29.8535 13.0664H18.2802C17.3444 13.0664 16.5392 13.6389 16.2294 14.5237C15.9195 15.4085 16.1933 16.3592 16.925 16.9429L19.0791 18.6664Z" fill="url(#paint0_linear)"/>
<path d="M34.0223 28.2239L33.2009 29.0452C32.6783 29.5803 31.9689 29.8665 31.2223 29.8665C30.4756 29.8665 29.7663 29.5803 29.2436 29.0452C28.1485 27.9501 28.1485 26.183 29.2436 25.0879L31.2969 23.0345C30.6623 22.1012 29.9654 21.255 29.2187 20.5332H18.9147C15.5049 23.8683 12.8667 29.7296 12.8667 34.5332C12.8667 38.7145 15.0818 42.9332 20.0223 42.9332H28.4223C32.6409 42.9332 35.2667 39.7101 35.2667 34.5332C35.2667 32.5296 34.8063 30.3394 34.0223 28.2239ZM23.5938 30.7999H24.5396C25.9956 30.7999 27.1778 31.9821 27.1778 33.4381C27.1778 34.7448 26.232 35.8274 25 36.039V37.0221C25 37.5323 24.5769 37.9554 24.0667 37.9554C23.5565 37.9554 23.1334 37.5323 23.1334 37.0221V36.0888H21.8889C21.3787 36.0888 20.9556 35.6656 20.9556 35.1554C20.9556 34.6452 21.3787 34.2221 21.8889 34.2221H24.5396C24.9627 34.2221 25.3111 33.8736 25.3111 33.4505C25.3111 33.015 24.9627 32.6665 24.5396 32.6665H23.5938C22.1378 32.6665 20.9556 31.4843 20.9556 30.0283C20.9556 28.7216 21.9014 27.639 23.1334 27.4274V26.4443C23.1334 25.9341 23.5565 25.511 24.0667 25.511C24.5769 25.511 25 25.9341 25 26.4443V27.3776H26.2445C26.7547 27.3776 27.1778 27.8008 27.1778 28.311C27.1778 28.8212 26.7547 29.2443 26.2445 29.2443H23.5938C23.1707 29.2443 22.8223 29.5928 22.8223 30.0159C22.8223 30.4514 23.1707 30.7999 23.5938 30.7999Z" fill="url(#paint1_linear)"/>
<path d="M40.5559 20.5332H37.4448C37.0677 20.5332 36.7267 20.7609 36.5824 21.1094C36.438 21.4578 36.5177 21.8598 36.7852 22.1261L37.5916 22.9325L36.3808 24.05L34.7966 23.144C34.4307 22.935 33.9715 22.9972 33.6741 23.2959L30.563 26.407C30.1984 26.7716 30.1984 27.3627 30.563 27.7273C30.7447 27.909 30.9836 28.0011 31.2226 28.0011C31.4615 28.0011 31.7004 27.9103 31.8821 27.7273L34.4892 25.1202L36.0473 26.0112C36.4019 26.2141 36.845 26.1631 37.1436 25.8868L38.912 24.2553L39.8951 25.2384C40.0743 25.4164 40.3132 25.511 40.5559 25.511C40.6766 25.511 40.7973 25.4873 40.9131 25.44C41.2615 25.2957 41.4892 24.9547 41.4892 24.5776V21.4665C41.4892 20.9513 41.0711 20.5332 40.5559 20.5332Z" fill="url(#paint2_linear)"/>
</g>
<defs>
<linearGradient id="paint0_linear" x1="24.0669" y1="13.0664" x2="24.0669" y2="18.6664" gradientUnits="userSpaceOnUse">
<stop stop-color="white"/>
<stop offset="1" stop-color="white" stop-opacity="0.9"/>
</linearGradient>
<linearGradient id="paint1_linear" x1="24.0667" y1="20.5332" x2="24.0667" y2="42.9332" gradientUnits="userSpaceOnUse">
<stop stop-color="white"/>
<stop offset="1" stop-color="white" stop-opacity="0.9"/>
</linearGradient>
<linearGradient id="paint2_linear" x1="35.8894" y1="20.5332" x2="35.8894" y2="28.0011" gradientUnits="userSpaceOnUse">
<stop stop-color="white"/>
<stop offset="1" stop-color="white" stop-opacity="0.9"/>
</linearGradient>
<clipPath id="clip0">
<rect width="29.8667" height="29.8667" fill="white" transform="translate(12.8667 13.0664)"/>
</clipPath>
</defs>
</svg>
