<svg width="56" height="56" viewBox="0 0 56 56" fill="none" xmlns="http://www.w3.org/2000/svg">
<rect width="56" height="56" rx="15" fill="#FF7976"/>
<g clip-path="url(#clip0)">
<path d="M28.0005 34.7669C29.9335 34.7669 31.5005 33.8528 31.5005 32.7253C31.5005 31.5977 29.9335 30.6836 28.0005 30.6836C26.0675 30.6836 24.5005 31.5977 24.5005 32.7253C24.5005 33.8528 26.0675 34.7669 28.0005 34.7669Z" fill="url(#paint0_linear)"/>
<path d="M39.7025 19.273C39.5189 19.0895 39.2635 18.9969 39.0051 19.0202C38.8633 19.0329 35.6717 19.3413 32.9165 21.3125C31.394 20.5722 29.7062 20.1833 28.0003 20.1833C26.2944 20.1833 24.6067 20.5722 23.0842 21.3124C20.329 19.3413 17.1374 19.0329 16.9955 19.0201C16.7367 18.9969 16.4816 19.0895 16.2982 19.2729C16.1147 19.4564 16.0222 19.7119 16.0455 19.9703C16.0581 20.1093 16.3608 23.2335 18.2747 25.9686C17.5757 27.3432 17.2087 28.8605 17.2087 30.3916C17.2087 32.6905 18.0348 34.9267 19.542 36.726V42.0583C19.542 42.5415 19.9338 42.9333 20.417 42.9333H22.4587C22.8451 42.9333 23.1858 42.6798 23.2968 42.3097L24.0254 39.8803C25.2914 40.3582 26.6242 40.6 28.0003 40.6C29.3764 40.6 30.7093 40.3582 31.9753 39.8803L32.7039 42.3097C32.8149 42.6798 33.1556 42.9333 33.542 42.9333H35.5837C36.0669 42.9333 36.4587 42.5415 36.4587 42.0583V36.726C37.9658 34.9267 38.792 32.6905 38.792 30.3916C38.792 28.8605 38.4249 27.3432 37.726 25.9687C39.6399 23.2336 39.9426 20.1094 39.9552 19.9704C39.9785 19.7119 39.8859 19.4565 39.7025 19.273ZM32.0837 26.5999C32.5669 26.5999 32.9587 26.9917 32.9587 27.4749C32.9587 27.9582 32.5669 28.3499 32.0837 28.3499C31.6004 28.3499 31.2087 27.9582 31.2087 27.4749C31.2087 26.9917 31.6004 26.5999 32.0837 26.5999ZM23.917 26.5999C24.4002 26.5999 24.792 26.9917 24.792 27.4749C24.792 27.9582 24.4002 28.3499 23.917 28.3499C23.4338 28.3499 23.042 27.9582 23.042 27.4749C23.042 26.9917 23.4338 26.5999 23.917 26.5999ZM28.0003 36.5166C25.0564 36.5166 22.7503 34.8511 22.7503 32.725C22.7503 30.5988 25.0564 28.9333 28.0003 28.9333C30.9442 28.9333 33.2503 30.5988 33.2503 32.725C33.2503 34.8511 30.9442 36.5166 28.0003 36.5166Z" fill="url(#paint1_linear)"/>
<path d="M28.0002 18.4331C28.9582 18.4331 29.9174 18.5418 30.853 18.7519C31.2961 18.1586 31.5586 17.4223 31.5586 16.6247C31.5586 14.6595 29.9654 13.0664 28.0002 13.0664C26.035 13.0664 24.4419 14.6595 24.4419 16.6247C24.4419 17.4223 24.7043 18.1586 25.1475 18.7519C26.0831 18.5418 27.0422 18.4331 28.0002 18.4331Z" fill="url(#paint2_linear)"/>
</g>
<defs>
<linearGradient id="paint0_linear" x1="28.0005" y1="30.6836" x2="28.0005" y2="34.7669" gradientUnits="userSpaceOnUse">
<stop stop-color="white"/>
<stop offset="1" stop-color="white" stop-opacity="0.9"/>
</linearGradient>
<linearGradient id="paint1_linear" x1="28.0003" y1="19.0166" x2="28.0003" y2="42.9333" gradientUnits="userSpaceOnUse">
<stop stop-color="white"/>
<stop offset="1" stop-color="white" stop-opacity="0.9"/>
</linearGradient>
<linearGradient id="paint2_linear" x1="28.0002" y1="13.0664" x2="28.0002" y2="18.7519" gradientUnits="userSpaceOnUse">
<stop stop-color="white"/>
<stop offset="1" stop-color="white" stop-opacity="0.9"/>
</linearGradient>
<clipPath id="clip0">
<rect width="29.8667" height="29.8667" fill="white" transform="translate(13.0669 13.0664)"/>
</clipPath>
</defs>
</svg>
