<svg width="19" height="16" viewBox="0 0 19 16" fill="none" xmlns="http://www.w3.org/2000/svg">
<g clip-path="url(#clip0)">
<path d="M1.86523 8C2.56963 4.58667 5.93199 2 9.97252 2C14.013 2 17.3747 4.58667 18.0798 8C17.3754 11.4133 14.013 14 9.97252 14C5.93199 14 2.57038 11.4133 1.86523 8ZM9.97252 11.3333C10.9662 11.3333 11.9192 10.9821 12.6219 10.357C13.3245 9.7319 13.7193 8.88406 13.7193 8C13.7193 7.11595 13.3245 6.2681 12.6219 5.64298C11.9192 5.01786 10.9662 4.66667 9.97252 4.66667C8.97881 4.66667 8.0258 5.01786 7.32314 5.64298C6.62049 6.2681 6.22574 7.11595 6.22574 8C6.22574 8.88406 6.62049 9.7319 7.32314 10.357C8.0258 10.9821 8.97881 11.3333 9.97252 11.3333ZM9.97252 10C9.37629 10 8.80449 9.78929 8.38289 9.41421C7.9613 9.03914 7.72445 8.53043 7.72445 8C7.72445 7.46957 7.9613 6.96086 8.38289 6.58579C8.80449 6.21071 9.37629 6 9.97252 6C10.5687 6 11.1405 6.21071 11.5621 6.58579C11.9837 6.96086 12.2206 7.46957 12.2206 8C12.2206 8.53043 11.9837 9.03914 11.5621 9.41421C11.1405 9.78929 10.5687 10 9.97252 10Z" fill="#17CE89"/>
</g>
<defs>
<clipPath id="clip0">
<rect width="17.9845" height="16" fill="white" transform="translate(0.979492)"/>
</clipPath>
</defs>
</svg>
