<svg width="56" height="56" viewBox="0 0 56 56" fill="none" xmlns="http://www.w3.org/2000/svg">
<rect width="56" height="56" rx="15" fill="#57CAEB"/>
<path d="M43 31.25C43 32 41.5 32.5 39.75 32.75C38.625 30.625 36.375 29 33.75 27.875C34 27.5 34.25 27.25 34.5 26.875H35.5C39.375 26.75 43 29.125 43 31.25ZM21.5 26.75H20.5C16.625 26.75 13 29.125 13 31.25C13 32 14.5 32.5 16.25 32.75C17.375 30.625 19.625 29 22.25 27.875L21.5 26.75ZM28 28C30.75 28 33 25.75 33 23C33 20.25 30.75 18 28 18C25.25 18 23 20.25 23 23C23 25.75 25.25 28 28 28ZM28 29.25C22.875 29.25 18 32.5 18 35.5C18 38 28 38 28 38C28 38 38 38 38 35.5C38 32.5 33.125 29.25 28 29.25ZM35.125 25.5H35.5C37.625 25.5 39.25 23.875 39.25 21.75C39.25 19.625 37.625 18 35.5 18C34.875 18 34.375 18.125 33.875 18.375C34.875 19.625 35.5 21.25 35.5 23C35.5 23.875 35.375 24.75 35.125 25.5ZM20.5 25.5H20.875C20.625 24.75 20.5 23.875 20.5 23C20.5 21.25 21.125 19.625 22.125 18.375C21.625 18.125 21.125 18 20.5 18C18.375 18 16.75 19.625 16.75 21.75C16.75 23.875 18.375 25.5 20.5 25.5Z" fill="url(#paint0_linear)"/>
<defs>
<linearGradient id="paint0_linear" x1="28" y1="18" x2="28" y2="38" gradientUnits="userSpaceOnUse">
<stop stop-color="white"/>
<stop offset="1" stop-color="white" stop-opacity="0.82"/>
</linearGradient>
</defs>
</svg>
