<svg width="16" height="17" viewBox="0 0 16 17" fill="none" xmlns="http://www.w3.org/2000/svg">
<g clip-path="url(#clip0_6972_3772)">
<path d="M8.66666 9.16683V12.8902L9.88532 11.6715L10.8287 12.6148L7.99999 15.4428L5.17132 12.6148L6.11466 11.6715L7.33332 12.8902V9.16683H8.66666ZM7.99999 1.8335C9.14464 1.83355 10.2494 2.25424 11.1041 3.01558C11.9589 3.77691 12.504 4.82581 12.636 5.96283C13.4655 6.18904 14.1891 6.69957 14.6804 7.40518C15.1717 8.1108 15.3994 8.96662 15.3237 9.82309C15.248 10.6796 14.8738 11.4822 14.2664 12.0907C13.6589 12.6992 12.857 13.0749 12.0007 13.1522V11.8095C12.3074 11.7657 12.6024 11.6612 12.8684 11.5021C13.1343 11.3431 13.366 11.1326 13.5497 10.8831C13.7334 10.6336 13.8656 10.3499 13.9386 10.0487C14.0115 9.74753 14.0237 9.43483 13.9745 9.12888C13.9252 8.82292 13.8155 8.52983 13.6518 8.26673C13.4881 8.00363 13.2736 7.77577 13.0208 7.59648C12.768 7.41718 12.4821 7.29002 12.1797 7.22244C11.8772 7.15485 11.5644 7.14818 11.2593 7.20283C11.3637 6.71675 11.3581 6.21348 11.2428 5.72986C11.1275 5.24625 10.9055 4.79455 10.5931 4.40785C10.2806 4.02115 9.88559 3.70923 9.43697 3.49496C8.98835 3.28068 8.49749 3.16947 8.00032 3.16947C7.50316 3.16947 7.01229 3.28068 6.56368 3.49496C6.11506 3.70923 5.72005 4.02115 5.40759 4.40785C5.09513 4.79455 4.87313 5.24625 4.75784 5.72986C4.64256 6.21348 4.63692 6.71675 4.74132 7.20283C4.13309 7.08861 3.5044 7.22069 2.99355 7.57C2.4827 7.91932 2.13154 8.45727 2.01732 9.0655C1.9031 9.67373 2.03518 10.3024 2.3845 10.8133C2.73382 11.3241 3.27176 11.6753 3.87999 11.7895L3.99999 11.8095V13.1522C3.14362 13.075 2.34159 12.6994 1.73408 12.091C1.12656 11.4825 0.752208 10.6799 0.67644 9.82338C0.600671 8.96689 0.82831 8.11102 1.31957 7.40535C1.81083 6.69967 2.53446 6.18909 3.36399 5.96283C3.49579 4.82575 4.04093 3.77677 4.89571 3.01541C5.75049 2.25404 6.85529 1.8334 7.99999 1.8335Z" fill="#17CE89"/>
</g>
<defs>
<clipPath id="clip0_6972_3772">
<rect width="16" height="16" fill="white" transform="translate(0 0.5)"/>
</clipPath>
</defs>
</svg>
