<svg width="32" height="32" viewBox="0 0 32 32" fill="none" xmlns="http://www.w3.org/2000/svg">
<g clip-path="url(#clip0)">
<path d="M27.3145 4.6861C21.066 -1.56169 10.935 -1.56238 4.68586 4.6861C-1.56263 10.9346 -1.56193 21.0656 4.68586 27.3148C10.9343 33.5619 21.0653 33.5626 27.3145 27.3148C33.5623 21.0656 33.5616 10.9353 27.3145 4.6861ZM18.0865 22.9571C18.0865 24.1098 17.1522 25.0441 15.9995 25.0441C14.8468 25.0441 13.9125 24.1098 13.9125 22.9571V14.6091C13.9125 13.4564 14.8468 12.5221 15.9995 12.5221C17.1522 12.5221 18.0865 13.4564 18.0865 14.6091V22.9571ZM15.9626 11.0417C14.7605 11.0417 13.9591 10.1902 13.9841 9.13907C13.9591 8.03713 14.7605 7.21137 15.987 7.21137C17.2141 7.21137 17.9905 8.03783 18.0162 9.13907C18.0155 10.1902 17.2148 11.0417 15.9626 11.0417Z" fill="#2F80ED"/>
</g>
<defs>
<clipPath id="clip0">
<rect width="32" height="32" fill="white"/>
</clipPath>
</defs>
</svg>
