<svg width="48" height="48" viewBox="0 0 48 48" fill="none" xmlns="http://www.w3.org/2000/svg">
<circle cx="24" cy="24" r="24" fill="#41D59D" fill-opacity="0.15"/>
<path d="M24 40C19.7262 40 15.7083 38.3357 12.6863 35.3137C9.66425 32.2917 8 28.2738 8 24C8 19.7262 9.66431 15.7083 12.6863 12.6863C15.7082 9.66419 19.7262 8 24 8C28.2738 8 32.2917 9.66425 35.3137 12.6863C38.3357 15.7083 40 19.7262 40 24C40 28.2738 38.3357 32.2917 35.3137 35.3137C32.2918 38.3358 28.2738 40 24 40ZM24 10C16.2804 10 10 16.2804 10 24C10 31.7196 16.2804 38 24 38C31.7196 38 38 31.7196 38 24C38 16.2804 31.7196 10 24 10Z" fill="#17CE89"/>
<g clip-path="url(#clip0)">
<path d="M28.1876 32H18.8137C18.4631 32 18.1413 31.8044 17.9806 31.4933C17.82 31.1821 17.8465 30.807 18.0497 30.5219L22.3494 24.4877L18.0498 18.48C17.8456 18.1944 17.8182 17.8193 17.9788 17.5076C18.1394 17.196 18.4612 17 18.8123 17H28.1876C28.7052 17 29.125 17.419 29.125 17.9358V19.8074H27.2502V18.8716H20.634L24.2632 23.9421C24.4957 24.267 24.4961 24.7034 24.2645 25.0287L20.6308 30.1284H27.2502V29.1875H29.125V31.0642C29.125 31.581 28.7052 32 28.1876 32Z" fill="#17CE89"/>
</g>
<defs>
<clipPath id="clip0">
<rect width="15" height="15" fill="white" transform="translate(16 17)"/>
</clipPath>
</defs>
</svg>
