<svg width="56" height="56" viewBox="0 0 56 56" fill="none" xmlns="http://www.w3.org/2000/svg">
<rect width="56" height="56" rx="15" fill="#FF7976"/>
<path fill-rule="evenodd" clip-rule="evenodd" d="M42.9999 24.87C39.4799 26.883 35.9599 28.8959 32.4399 30.9087C32.3557 30.9569 32.2708 31.0038 32.1504 31.0714C31.2152 29.8985 30.2817 28.728 29.3284 27.5325C33.1298 25.4473 36.912 23.3726 40.7195 21.2842C40.7823 21.376 40.8429 21.4594 40.8981 21.5462C41.5358 22.5506 42.1722 23.5558 42.8108 24.5594C42.867 24.6478 42.9366 24.7276 42.9999 24.8114C42.9999 24.831 42.9999 24.8505 42.9999 24.87Z" fill="url(#paint0_linear)"/>
<path fill-rule="evenodd" clip-rule="evenodd" d="M13 24.8113C13.0672 24.732 13.1427 24.6583 13.2003 24.5726C13.8202 23.6489 14.437 22.7232 15.0553 21.7985C15.1143 21.7103 15.1775 21.6248 15.2476 21.5254C19.0434 23.5298 22.8261 25.5271 26.6427 27.5426C25.6959 28.7311 24.768 29.8959 23.8295 31.0739C20.2071 28.9987 16.6036 26.9343 13 24.8699C13 24.8503 13 24.8308 13 24.8113Z" fill="url(#paint1_linear)"/>
<path fill-rule="evenodd" clip-rule="evenodd" d="M16.8984 20.3985C18.5151 19.6026 20.0886 18.8278 21.6622 18.0533C23.6994 17.0507 25.7356 16.0457 27.7775 15.0525C27.8969 14.9943 28.0884 14.9794 28.2043 15.0338C31.7864 16.7133 35.3633 18.4039 38.9407 20.0933C38.9751 20.1096 39.006 20.1332 39.0679 20.1715C38.9713 20.2308 38.8935 20.2833 38.8116 20.3282C35.29 22.2591 31.7671 24.1876 28.2486 26.1242C28.0551 26.2307 27.9165 26.2335 27.7192 26.1288C24.2144 24.2702 20.7047 22.4209 17.1963 20.5691C17.1117 20.5243 17.0299 20.474 16.8984 20.3985Z" fill="url(#paint2_linear)"/>
<path fill-rule="evenodd" clip-rule="evenodd" d="M15.8378 28.5381C15.9591 28.5994 16.0531 28.6417 16.1422 28.6926C18.5784 30.0881 21.0141 31.4844 23.4498 32.8806C24.0377 33.2177 24.4239 33.1455 24.8491 32.613C25.5849 31.6916 26.319 30.7688 27.0928 29.7975C27.0928 33.3224 27.0928 36.7869 27.0928 40.2914C27.0014 40.2472 26.9175 40.2095 26.8363 40.1667C23.2416 38.2705 19.6472 36.3737 16.0522 34.4778C15.921 34.4086 15.8143 34.3533 15.8154 34.1602C15.8252 32.3548 15.8216 30.5493 15.8226 28.7438C15.8227 28.6883 15.8306 28.6329 15.8378 28.5381Z" fill="url(#paint3_linear)"/>
<path fill-rule="evenodd" clip-rule="evenodd" d="M28.8884 40.2663C28.8884 36.7841 28.8884 33.3344 28.8884 29.8171C28.9858 29.9303 29.0528 30.0036 29.1145 30.0809C29.7967 30.9353 30.4777 31.7906 31.1596 32.6452C31.5478 33.1319 31.9499 33.2114 32.4915 32.9017C34.9386 31.5027 37.3846 30.1018 39.8311 28.7019C39.9207 28.6506 40.0123 28.6025 40.1299 28.5381C40.1382 28.6569 40.148 28.7325 40.148 28.8081C40.1489 30.4875 40.1463 32.167 40.1523 33.8464C40.153 34.0232 40.104 34.1258 39.9427 34.214C36.324 36.1944 32.7084 38.1805 29.092 40.1651C29.0345 40.1967 28.9745 40.2237 28.8884 40.2663Z" fill="url(#paint4_linear)"/>
<defs>
<linearGradient id="paint0_linear" x1="36.1641" y1="21.2842" x2="36.1641" y2="31.0714" gradientUnits="userSpaceOnUse">
<stop stop-color="white"/>
<stop offset="1" stop-color="white" stop-opacity="0.82"/>
</linearGradient>
<linearGradient id="paint1_linear" x1="19.8214" y1="21.5254" x2="19.8214" y2="31.0739" gradientUnits="userSpaceOnUse">
<stop stop-color="white"/>
<stop offset="1" stop-color="white" stop-opacity="0.82"/>
</linearGradient>
<linearGradient id="paint2_linear" x1="27.9832" y1="15" x2="27.9832" y2="26.2057" gradientUnits="userSpaceOnUse">
<stop stop-color="white"/>
<stop offset="1" stop-color="white" stop-opacity="0.82"/>
</linearGradient>
<linearGradient id="paint3_linear" x1="21.4541" y1="28.5381" x2="21.4541" y2="40.2914" gradientUnits="userSpaceOnUse">
<stop stop-color="white"/>
<stop offset="1" stop-color="white" stop-opacity="0.82"/>
</linearGradient>
<linearGradient id="paint4_linear" x1="34.5204" y1="28.5381" x2="34.5204" y2="40.2663" gradientUnits="userSpaceOnUse">
<stop stop-color="white"/>
<stop offset="1" stop-color="white" stop-opacity="0.82"/>
</linearGradient>
</defs>
</svg>
