<svg width="43" height="42" viewBox="0 0 43 42" fill="none" xmlns="http://www.w3.org/2000/svg">
<rect x="1.41797" y="0.500488" width="41" height="41" rx="7.5" stroke="#E1E7EC"/>
<path d="M11.918 18.7505C11.508 18.7505 11.168 18.4105 11.168 18.0005V15.5005C11.168 12.6005 13.528 10.2505 16.418 10.2505H18.918C19.328 10.2505 19.668 10.5905 19.668 11.0005C19.668 11.4105 19.328 11.7505 18.918 11.7505H16.418C14.348 11.7505 12.668 13.4305 12.668 15.5005V18.0005C12.668 18.4105 12.328 18.7505 11.918 18.7505Z" fill="#7C8DB5"/>
<path d="M31.918 18.7505C31.508 18.7505 31.168 18.4105 31.168 18.0005V15.5005C31.168 13.4305 29.488 11.7505 27.418 11.7505H24.918C24.508 11.7505 24.168 11.4105 24.168 11.0005C24.168 10.5905 24.508 10.2505 24.918 10.2505H27.418C30.308 10.2505 32.668 12.6005 32.668 15.5005V18.0005C32.668 18.4105 32.328 18.7505 31.918 18.7505Z" fill="#7C8DB5"/>
<path d="M27.418 31.7505H25.918C25.508 31.7505 25.168 31.4105 25.168 31.0005C25.168 30.5905 25.508 30.2505 25.918 30.2505H27.418C29.488 30.2505 31.168 28.5705 31.168 26.5005V25.0005C31.168 24.5905 31.508 24.2505 31.918 24.2505C32.328 24.2505 32.668 24.5905 32.668 25.0005V26.5005C32.668 29.4005 30.308 31.7505 27.418 31.7505Z" fill="#7C8DB5"/>
<path d="M18.918 31.7505H16.418C13.528 31.7505 11.168 29.4005 11.168 26.5005V24.0005C11.168 23.5905 11.508 23.2505 11.918 23.2505C12.328 23.2505 12.668 23.5905 12.668 24.0005V26.5005C12.668 28.5705 14.348 30.2505 16.418 30.2505H18.918C19.328 30.2505 19.668 30.5905 19.668 31.0005C19.668 31.4105 19.328 31.7505 18.918 31.7505Z" fill="#7C8DB5"/>
<path d="M18.918 20.2505H16.918C15.508 20.2505 14.668 19.4105 14.668 18.0005V16.0005C14.668 14.5905 15.508 13.7505 16.918 13.7505H18.918C20.328 13.7505 21.168 14.5905 21.168 16.0005V18.0005C21.168 19.4105 20.328 20.2505 18.918 20.2505ZM16.918 15.2505C16.328 15.2505 16.168 15.4105 16.168 16.0005V18.0005C16.168 18.5905 16.328 18.7505 16.918 18.7505H18.918C19.508 18.7505 19.668 18.5905 19.668 18.0005V16.0005C19.668 15.4105 19.508 15.2505 18.918 15.2505H16.918Z" fill="#7C8DB5"/>
<path d="M26.918 20.2505H24.918C23.508 20.2505 22.668 19.4105 22.668 18.0005V16.0005C22.668 14.5905 23.508 13.7505 24.918 13.7505H26.918C28.328 13.7505 29.168 14.5905 29.168 16.0005V18.0005C29.168 19.4105 28.328 20.2505 26.918 20.2505ZM24.918 15.2505C24.328 15.2505 24.168 15.4105 24.168 16.0005V18.0005C24.168 18.5905 24.328 18.7505 24.918 18.7505H26.918C27.508 18.7505 27.668 18.5905 27.668 18.0005V16.0005C27.668 15.4105 27.508 15.2505 26.918 15.2505H24.918Z" fill="#7C8DB5"/>
<path d="M18.918 28.2505H16.918C15.508 28.2505 14.668 27.4105 14.668 26.0005V24.0005C14.668 22.5905 15.508 21.7505 16.918 21.7505H18.918C20.328 21.7505 21.168 22.5905 21.168 24.0005V26.0005C21.168 27.4105 20.328 28.2505 18.918 28.2505ZM16.918 23.2505C16.328 23.2505 16.168 23.4105 16.168 24.0005V26.0005C16.168 26.5905 16.328 26.7505 16.918 26.7505H18.918C19.508 26.7505 19.668 26.5905 19.668 26.0005V24.0005C19.668 23.4105 19.508 23.2505 18.918 23.2505H16.918Z" fill="#7C8DB5"/>
<path d="M26.918 28.2505H24.918C23.508 28.2505 22.668 27.4105 22.668 26.0005V24.0005C22.668 22.5905 23.508 21.7505 24.918 21.7505H26.918C28.328 21.7505 29.168 22.5905 29.168 24.0005V26.0005C29.168 27.4105 28.328 28.2505 26.918 28.2505ZM24.918 23.2505C24.328 23.2505 24.168 23.4105 24.168 24.0005V26.0005C24.168 26.5905 24.328 26.7505 24.918 26.7505H26.918C27.508 26.7505 27.668 26.5905 27.668 26.0005V24.0005C27.668 23.4105 27.508 23.2505 26.918 23.2505H24.918Z" fill="#17CE89"/>
</svg>
