<svg width="56" height="56" viewBox="0 0 56 56" fill="none" xmlns="http://www.w3.org/2000/svg">
<rect width="56" height="56" rx="15" fill="#57CAEB"/>
<path d="M22.1845 23.875L23.371 16H17.2L14.6215 22.75C14.542 22.99 14.5 23.239 14.5 23.5C14.5 25.156 16.225 26.5 18.3565 26.5C20.3215 26.5 21.946 25.354 22.1845 23.875ZM28 26.5C30.13 26.5 31.8565 25.156 31.8565 23.5C31.8565 23.4385 31.852 23.377 31.849 23.3185L31.0855 16H24.9145L24.1495 23.3125C24.1465 23.374 24.1435 23.4355 24.1435 23.5C24.1435 25.156 25.87 26.5 28 26.5ZM35.5 28.069V34H20.5V28.078C19.843 28.315 19.12 28.45 18.3565 28.45C18.064 28.45 17.7805 28.4155 17.5 28.3765V37.9C17.5 39.055 18.4435 40 19.597 40H36.4C37.555 40 38.5 39.0535 38.5 37.9V28.378C38.2165 28.4215 37.9303 28.4461 37.6435 28.4515C36.9121 28.4508 36.1865 28.3213 35.5 28.069ZM41.38 22.75L38.7985 16H32.629L33.814 23.863C34.045 25.348 35.6695 26.5 37.6435 26.5C39.7735 26.5 41.5 25.156 41.5 23.5C41.5 23.239 41.458 22.99 41.38 22.75Z" fill="url(#paint0_linear)"/>
<defs>
<linearGradient id="paint0_linear" x1="28" y1="16" x2="28" y2="40" gradientUnits="userSpaceOnUse">
<stop stop-color="white"/>
<stop offset="1" stop-color="white" stop-opacity="0.82"/>
</linearGradient>
</defs>
</svg>
