<svg width="43" height="42" viewBox="0 0 43 42" fill="none" xmlns="http://www.w3.org/2000/svg">
<rect x="1.41797" y="0.500488" width="41" height="41" rx="7.5" stroke="#E1E7EC"/>
<path d="M22 31.81C21.31 31.81 20.66 31.46 20.2 30.85L18.7 28.85C18.67 28.81 18.55 28.76 18.5 28.75H18C13.83 28.75 11.25 27.62 11.25 22V17C11.25 12.58 13.58 10.25 18 10.25H26C30.42 10.25 32.75 12.58 32.75 17V22C32.75 26.42 30.42 28.75 26 28.75H25.5C25.42 28.75 25.35 28.79 25.3 28.85L23.8 30.85C23.34 31.46 22.69 31.81 22 31.81ZM18 11.75C14.42 11.75 12.75 13.42 12.75 17V22C12.75 26.52 14.3 27.25 18 27.25H18.5C19.01 27.25 19.59 27.54 19.9 27.95L21.4 29.95C21.75 30.41 22.25 30.41 22.6 29.95L24.1 27.95C24.43 27.51 24.95 27.25 25.5 27.25H26C29.58 27.25 31.25 25.58 31.25 22V17C31.25 13.42 29.58 11.75 26 11.75H18Z" fill="#7C8DB5"/>
<path d="M22 21C21.44 21 21 20.55 21 20C21 19.45 21.45 19 22 19C22.55 19 23 19.45 23 20C23 20.55 22.56 21 22 21Z" fill="#17CE89"/>
<path d="M26 21C25.44 21 25 20.55 25 20C25 19.45 25.45 19 26 19C26.55 19 27 19.45 27 20C27 20.55 26.56 21 26 21Z" fill="#17CE89"/>
<path d="M18 21C17.44 21 17 20.55 17 20C17 19.45 17.45 19 18 19C18.55 19 19 19.45 19 20C19 20.55 18.56 21 18 21Z" fill="#17CE89"/>
</svg>
