<svg width="56" height="56" viewBox="0 0 56 56" fill="none" xmlns="http://www.w3.org/2000/svg">
<rect width="56" height="56" rx="15" fill="#FF7976"/>
<g clip-path="url(#clip0)">
<path d="M28.0002 34.7669C29.9332 34.7669 31.5002 33.8528 31.5002 32.7253C31.5002 31.5977 29.9332 30.6836 28.0002 30.6836C26.0672 30.6836 24.5002 31.5977 24.5002 32.7253C24.5002 33.8528 26.0672 34.7669 28.0002 34.7669Z" fill="url(#paint0_linear)"/>
<path d="M39.7023 19.2735C39.5188 19.09 39.2633 18.9974 39.005 19.0207C38.8631 19.0334 35.6715 19.3418 32.9163 21.313C31.3938 20.5727 29.706 20.1838 28.0001 20.1838C26.2942 20.1838 24.6065 20.5727 23.084 21.3129C20.3288 19.3418 17.1372 19.0334 16.9953 19.0206C16.7365 18.9974 16.4814 19.09 16.298 19.2734C16.1145 19.4569 16.022 19.7124 16.0454 19.9708C16.058 20.1098 16.3606 23.234 18.2745 25.9691C17.5756 27.3437 17.2085 28.861 17.2085 30.3921C17.2085 32.691 18.0346 34.9272 19.5418 36.7265V42.0588C19.5418 42.542 19.9336 42.9338 20.4168 42.9338H22.4585C22.8449 42.9338 23.1856 42.6803 23.2966 42.3101L24.0252 39.8808C25.2912 40.3587 26.6241 40.6004 28.0001 40.6004C29.3762 40.6004 30.7091 40.3587 31.9751 39.8808L32.7037 42.3101C32.8147 42.6803 33.1554 42.9338 33.5418 42.9338H35.5835C36.0667 42.9338 36.4585 42.542 36.4585 42.0588V36.7265C37.9656 34.9272 38.7918 32.691 38.7918 30.3921C38.7918 28.861 38.4247 27.3437 37.7258 25.9691C39.6397 23.2341 39.9424 20.1099 39.955 19.9708C39.9783 19.7124 39.8857 19.457 39.7023 19.2735ZM32.0835 26.6004C32.5667 26.6004 32.9585 26.9922 32.9585 27.4754C32.9585 27.9587 32.5667 28.3504 32.0835 28.3504C31.6002 28.3504 31.2085 27.9587 31.2085 27.4754C31.2085 26.9922 31.6002 26.6004 32.0835 26.6004ZM23.9168 26.6004C24.4 26.6004 24.7918 26.9922 24.7918 27.4754C24.7918 27.9587 24.4 28.3504 23.9168 28.3504C23.4336 28.3504 23.0418 27.9587 23.0418 27.4754C23.0418 26.9922 23.4336 26.6004 23.9168 26.6004ZM28.0001 36.5171C25.0562 36.5171 22.7501 34.8516 22.7501 32.7254C22.7501 30.5992 25.0562 28.9338 28.0001 28.9338C30.944 28.9338 33.2501 30.5992 33.2501 32.7254C33.2501 34.8516 30.944 36.5171 28.0001 36.5171Z" fill="url(#paint1_linear)"/>
<path d="M28.0002 18.4336C28.9582 18.4336 29.9174 18.5423 30.853 18.7524C31.2961 18.159 31.5586 17.4228 31.5586 16.6252C31.5586 14.66 29.9654 13.0669 28.0002 13.0669C26.035 13.0669 24.4419 14.66 24.4419 16.6252C24.4419 17.4228 24.7043 18.159 25.1475 18.7524C26.0831 18.5423 27.0422 18.4336 28.0002 18.4336Z" fill="url(#paint2_linear)"/>
</g>
<defs>
<linearGradient id="paint0_linear" x1="28.0002" y1="30.6836" x2="28.0002" y2="34.7669" gradientUnits="userSpaceOnUse">
<stop stop-color="white"/>
<stop offset="1" stop-color="white" stop-opacity="0.9"/>
</linearGradient>
<linearGradient id="paint1_linear" x1="28.0002" y1="19.0171" x2="28.0002" y2="42.9338" gradientUnits="userSpaceOnUse">
<stop stop-color="white"/>
<stop offset="1" stop-color="white" stop-opacity="0.9"/>
</linearGradient>
<linearGradient id="paint2_linear" x1="28.0002" y1="13.0669" x2="28.0002" y2="18.7524" gradientUnits="userSpaceOnUse">
<stop stop-color="white"/>
<stop offset="1" stop-color="white" stop-opacity="0.9"/>
</linearGradient>
<clipPath id="clip0">
<rect width="29.8667" height="29.8667" fill="white" transform="translate(13.0667 13.0669)"/>
</clipPath>
</defs>
</svg>
