<svg width="43" height="42" viewBox="0 0 43 42" fill="none" xmlns="http://www.w3.org/2000/svg">
<rect x="1.41797" y="0.500488" width="41" height="41" rx="7.5" stroke="#E1E7EC"/>
<path d="M23 18.75H17C16.59 18.75 16.25 18.41 16.25 18C16.25 17.59 16.59 17.25 17 17.25H23C23.41 17.25 23.75 17.59 23.75 18C23.75 18.41 23.41 18.75 23 18.75Z" fill="#17CE89"/>
<path d="M29.0399 23.8002C27.5299 23.8002 26.2499 22.6802 26.1299 21.2402C26.0499 20.4102 26.3499 19.6002 26.9499 19.0102C27.4499 18.4902 28.1599 18.2002 28.9099 18.2002H30.9999C31.9899 18.2302 32.7499 19.0102 32.7499 19.9702V22.0302C32.7499 22.9902 31.9899 23.7702 31.0299 23.8002H29.0399ZM30.9699 19.7002H28.9199C28.5699 19.7002 28.2499 19.8302 28.0199 20.0702C27.7299 20.3502 27.5899 20.7302 27.6299 21.1102C27.6799 21.7702 28.3199 22.3002 29.0399 22.3002H30.9999C31.1299 22.3002 31.2499 22.1802 31.2499 22.0302V19.9702C31.2499 19.8202 31.1299 19.7102 30.9699 19.7002Z" fill="#7C8DB5"/>
<path d="M26 30.25H17C13.56 30.25 11.25 27.94 11.25 24.5V17.5C11.25 14.42 13.15 12.19 16.1 11.82C16.37 11.78 16.68 11.75 17 11.75H26C26.24 11.75 26.55 11.76 26.87 11.81C29.82 12.15 31.75 14.39 31.75 17.5V18.95C31.75 19.36 31.41 19.7 31 19.7H28.92C28.57 19.7 28.25 19.83 28.02 20.07L28.01 20.08C27.73 20.35 27.6 20.72 27.63 21.1C27.68 21.76 28.32 22.29 29.04 22.29H31C31.41 22.29 31.75 22.63 31.75 23.04V24.49C31.75 27.94 29.44 30.25 26 30.25ZM17 13.25C16.76 13.25 16.53 13.27 16.3 13.3C14.1 13.58 12.75 15.18 12.75 17.5V24.5C12.75 27.08 14.42 28.75 17 28.75H26C28.58 28.75 30.25 27.08 30.25 24.5V23.8H29.04C27.53 23.8 26.25 22.68 26.13 21.24C26.05 20.42 26.35 19.6 26.95 19.02C27.47 18.49 28.17 18.2 28.92 18.2H30.25V17.5C30.25 15.16 28.88 13.55 26.66 13.29C26.42 13.25 26.21 13.25 26 13.25H17Z" fill="#7C8DB5"/>
</svg>
